<svg xmlns="http://www.w3.org/2000/svg" xmlns:xlink="http://www.w3.org/1999/xlink" xmlns:lucid="lucid" width="2600" height="1800"><g transform="translate(0 -40)" lucid:page-tab-id="eNGSsyP3042C"><path d="M0 0h2645.67v1870.87H0z" fill="#fff"/><path d="M400 66c0-3.3 2.7-6 6-6h1488c3.3 0 6 2.7 6 6v1748c0 3.3-2.7 6-6 6H406c-3.3 0-6-2.7-6-6z" stroke="#0c7cba" stroke-width="3" fill="#fff"/><use xlink:href="#a" transform="matrix(1,0,0,1,405,65) translate(0 24.888888888888886)"/><use xlink:href="#b" transform="matrix(1,0,0,1,405,65) translate(33.444444444444436 24.888888888888886)"/><use xlink:href="#c" transform="matrix(1,0,0,1,405,65) translate(107.59259259259258 24.888888888888886)"/><path d="M1930 66c0-3.3 2.7-6 6-6h348c3.3 0 6 2.7 6 6v1748c0 3.3-2.7 6-6 6h-348c-3.3 0-6-2.7-6-6z" stroke="#b2b2b2" stroke-width="3" fill="#fff"/><use xlink:href="#d" transform="matrix(1,0,0,1,1935,65) translate(0 24.888888888888886)"/><use xlink:href="#e" transform="matrix(1,0,0,1,1935,65) translate(91.5185185185185 24.888888888888886)"/><path d="M2320 66c0-3.3 2.7-6 6-6h248c3.3 0 6 2.7 6 6v1748c0 3.3-2.7 6-6 6h-248c-3.3 0-6-2.7-6-6z" stroke="#333" stroke-width="3" fill="#fff"/><use xlink:href="#f" transform="matrix(1,0,0,1,2325,65.00000000000023) translate(0 24.888888888888886)"/><path d="M2380 630.05c0-3.32 2.7-6 6-6h148c3.3 0 6 2.68 6 6v109.9c0 3.32-2.7 6-6 6h-148c-3.3 0-6-2.68-6-6z" stroke="#333" stroke-width="3" fill="#fff"/><use xlink:href="#g" transform="matrix(1,0,0,1,2392,636.0471882649664) translate(6.148148148148138 38.333333333333336)"/><use xlink:href="#h" transform="matrix(1,0,0,1,2392,636.0471882649664) translate(66.22222222222221 38.333333333333336)"/><use xlink:href="#i" transform="matrix(1,0,0,1,2392,636.0471882649664) translate(-9.666666666666671 70.33333333333334)"/><path d="M2180 1132.66c0-3.3 2.7-6 6-6h68c3.3 0 6 2.7 6 6v85.02c0 3.3-2.7 6-6 6h-68c-3.3 0-6-2.7-6-6z" stroke="#b2b2b2" stroke-width="3" fill="#fff"/><use xlink:href="#j" transform="matrix(1,0,0,1,2192.0000000000005,1138.6624205816952) translate(8.308641975308646 19.555555555555557)"/><use xlink:href="#k" transform="matrix(1,0,0,1,2192.0000000000005,1138.6624205816952) translate(17.814814814814817 48.88888888888889)"/><use xlink:href="#l" transform="matrix(1,0,0,1,2192.0000000000005,1138.6624205816952) translate(2.2654320987654373 78.22222222222223)"/><path d="M2381.7 450.62c0-3.3 2.68-6 6-6H2534c3.3 0 6 2.7 6 6v97.8c0 3.33-2.7 6-6 6h-146.3c-3.32 0-6-2.67-6-6z" stroke="#333" stroke-width="3" fill="#fff"/><use xlink:href="#m" transform="matrix(1,0,0,1,2393.6978346456694,456.62456813121827) translate(29.759259259259252 48.208333333333336)"/><path d="M2381.7 897.05c0-3.3 2.68-6 6-6h148c3.3 0 6 2.7 6 6v87.8c0 3.33-2.7 6-6 6h-148c-3.32 0-6-2.67-6-6z" stroke="#333" stroke-width="3" fill="#fff"/><use xlink:href="#n" transform="matrix(1,0,0,1,2393.6978346456694,903.0541375419906) translate(25.074074074074076 21.333333333333336)"/><use xlink:href="#o" transform="matrix(1,0,0,1,2393.6978346456694,903.0541375419906) translate(5.1851851851851904 53.333333333333336)"/><path d="M2391.7 1614.53c0-3.3 2.68-6 6-6h128c3.3 0 6 2.7 6 6v87.8c0 3.32-2.7 6-6 6h-128c-3.32 0-6-2.68-6-6z" stroke="#333" stroke-width="3" fill="#fff"/><use xlink:href="#p" transform="matrix(1,0,0,1,2403.6978346456694,1620.5288194986801) translate(10.00617283950617 29.65277777777778)"/><use xlink:href="#q" transform="matrix(1,0,0,1,2403.6978346456694,1620.5288194986801) translate(3.7716049382715937 56.31944444444445)"/><path d="M2381.7 168.53c0-3.3 2.68-6 6-6h148c3.3 0 6 2.7 6 6v87.8c0 3.32-2.7 6-6 6h-148c-3.32 0-6-2.68-6-6z" stroke="#333" stroke-width="3" fill="#fff"/><use xlink:href="#r" transform="matrix(1,0,0,1,2393.6978346456694,174.52881949867648) translate(46.55555555555556 27.333333333333336)"/><use xlink:href="#s" transform="matrix(1,0,0,1,2393.6978346456694,174.52881949867648) translate(-3.037037037037038 59.333333333333336)"/><path d="M2124.76 499.8H2184c3.3 0 6 2.68 6 6V679c0 3.32 2.7 6 6 6h159.76" stroke="#333" stroke-width="4" fill="none"/><path d="M2108.5 499.8l14.26-4.64v9.27zM2372.03 685l-14.27 4.64v-9.27z" stroke="#333" stroke-width="4" fill="#333"/><path d="M2124.76 501h232.7" stroke="#333" stroke-width="4" fill="none"/><path d="M2108.5 501l14.26-4.63v9.27zM2373.73 501l-14.27 4.64v-9.27z" stroke="#333" stroke-width="4" fill="#333"/><path d="M2122.35 940.96h235.1" stroke="#333" stroke-width="4" fill="none"/><path d="M2106.08 940.96l14.27-4.64v9.27zM2373.73 940.96l-14.27 4.63v-9.28z" stroke="#333" stroke-width="4" fill="#333"/><path d="M2123.92 1658.43h243.54" stroke="#333" stroke-width="4" fill="none"/><path d="M2107.66 1658.43l14.26-4.63v9.27zM2383.73 1658.43l-14.27 4.64v-9.27z" stroke="#333" stroke-width="4" fill="#333"/><path d="M2122.6 1175.17h33.16" stroke="#333" stroke-width="4" fill="none"/><path d="M2106.33 1175.17l14.26-4.63v9.27zM2172.03 1175.17l-14.27 4.64v-9.26z" stroke="#333" stroke-width="4" fill="#333"/><path d="M2391.7 1366.1c0-3.32 2.68-6 6-6h128c3.3 0 6 2.68 6 6v87.8c0 3.32-2.7 6-6 6h-128c-3.32 0-6-2.68-6-6z" stroke="#333" stroke-width="3" fill="#fff"/><use xlink:href="#t" transform="matrix(1,0,0,1,2403.6978346456694,1372.0957486325412) translate(27.19753086419753 41.52777777777778)"/><path d="M2124.53 1410h242.93" stroke="#333" stroke-width="4" fill="none"/><path d="M2108.26 1410l14.27-4.64v9.28zM2383.72 1410l-14.26 4.64v-9.28z" stroke="#333" stroke-width="4" fill="#333"/><path d="M2280 1175.17h91.7" stroke="#333" stroke-width="2" fill="none"/><path d="M2264.74 1175.17l14.26-4.63v9.27zM2386.96 1175.17l-14.26 4.64v-9.26z" stroke="#333" stroke-width="2" fill="#333"/><path d="M2391.7 1132.66c0-3.3 2.68-6 6-6h128c3.3 0 6 2.7 6 6v85.02c0 3.3-2.7 6-6 6h-128c-3.32 0-6-2.7-6-6z" stroke="#333" stroke-width="3" fill="#fff"/><use xlink:href="#u" transform="matrix(1,0,0,1,2403.6978346456694,1138.6624205816952) translate(31.333333333333332 42.145833333333336)"/><path d="M1350.87 128.43c0-3.3 2.68-6 6-6h208c3.3 0 6 2.7 6 6v168c0 3.32-2.7 6-6 6h-208c-3.32 0-6-2.68-6-6z" stroke="#ef8d22" stroke-width="3" fill="#fff"/><use xlink:href="#v" transform="matrix(1,0,0,1,1362.8661417322837,134.4330708661371) translate(74.89814814814815 65.91666666666666)"/><use xlink:href="#w" transform="matrix(1,0,0,1,1362.8661417322837,134.4330708661371) translate(4.296296296296347 105.91666666666664)"/><path d="M1350.87 369.43c0-3.3 2.68-6 6-6h208c3.3 0 6 2.7 6 6v168c0 3.32-2.7 6-6 6h-208c-3.32 0-6-2.68-6-6z" stroke="#ef8d22" stroke-width="3" fill="#fff"/><use xlink:href="#x" transform="matrix(1,0,0,1,1362.8661417322837,375.43307086613765) translate(65.08333333333334 85.16666666666666)"/><path d="M1350 610.43c0-3.3 2.7-6 6-6h208c3.3 0 6 2.7 6 6v168c0 3.32-2.7 6-6 6h-208c-3.3 0-6-2.68-6-6z" stroke="#ef8d22" stroke-width="3" fill="#fff"/><use xlink:href="#y" transform="matrix(1,0,0,1,1362.0000000000014,616.4330708661365) translate(50.82407407407409 85.16666666666666)"/><path d="M1350.87 1326c0-3.3 2.68-6 6-6h208c3.3 0 6 2.7 6 6v168c0 3.3-2.7 6-6 6h-208c-3.32 0-6-2.7-6-6z" stroke="#ef8d22" stroke-width="3" fill="#fff"/><use xlink:href="#z" transform="matrix(1,0,0,1,1362.8661417322833,1332) translate(51.79629629629631 85.54166666666666)"/><path d="M1350 1092.43c0-3.3 2.7-6 6-6h208c3.3 0 6 2.7 6 6v168c0 3.32-2.7 6-6 6h-208c-3.3 0-6-2.68-6-6z" stroke="#ef8d22" stroke-width="3" fill="#fff"/><use xlink:href="#A" transform="matrix(1,0,0,1,1362.0000000000023,1098.4330708661394) translate(64.66666666666669 85.54166666666666)"/><path d="M1675.76 212.43H1595.1" stroke="#333" stroke-width="4" fill="none"/><path d="M1692.03 212.43l-14.27 4.64v-9.27zM1578.84 212.43l14.27-4.63v9.27z" stroke="#333" stroke-width="4" fill="#333"/><path d="M1700 1574.43c0-3.3 2.7-6 6-6h148c3.3 0 6 2.7 6 6v168c0 3.32-2.7 6-6 6h-148c-3.3 0-6-2.68-6-6z" stroke="#c92d39" stroke-width="3" fill="#fff"/><use xlink:href="#B" transform="matrix(1,0,0,1,1712.0000000000002,1580.4330708661419) translate(31.8888888888889 65.66666666666666)"/><use xlink:href="#C" transform="matrix(1,0,0,1,1712.0000000000002,1580.4330708661419) translate(26.472222222222236 105.66666666666664)"/><path d="M1700 1326c0-3.3 2.7-6 6-6h148c3.3 0 6 2.7 6 6v168c0 3.3-2.7 6-6 6h-148c-3.3 0-6-2.7-6-6z" stroke="#c92d39" stroke-width="3" fill="#fff"/><use xlink:href="#D" transform="matrix(1,0,0,1,1712.0000000000002,1332) translate(23.59259259259261 65.66666666666666)"/><use xlink:href="#C" transform="matrix(1,0,0,1,1712.0000000000002,1332) translate(26.972222222222236 105.66666666666664)"/><path d="M1350.87 1574.43c0-3.3 2.68-6 6-6h208c3.3 0 6 2.7 6 6v168c0 3.32-2.7 6-6 6h-208c-3.32 0-6-2.68-6-6z" stroke="#ef8d22" stroke-width="3" fill="#fff"/><use xlink:href="#E" transform="matrix(1,0,0,1,1362.8661417322837,1580.4330708661419) translate(47.12037037037039 65.66666666666666)"/><use xlink:href="#F" transform="matrix(1,0,0,1,1362.8661417322837,1580.4330708661419) translate(11.750000000000043 105.66666666666664)"/><path d="M1350 844.15c0-3.3 2.7-6 6-6h208c3.3 0 6 2.7 6 6v168c0 3.32-2.7 6-6 6h-208c-3.3 0-6-2.68-6-6z" stroke="#ef8d22" stroke-width="3" fill="#fff"/><use xlink:href="#G" transform="matrix(1,0,0,1,1362.0000000000014,850.1542921158032) translate(48.000000000000014 65.91666666666666)"/><use xlink:href="#H" transform="matrix(1,0,0,1,1362.0000000000014,850.1542921158032) translate(14.574074074074105 105.91666666666664)"/><path d="M1700 370.62c0-3.3 2.7-6 6-6h148c3.3 0 6 2.7 6 6v633.8c0 3.32-2.7 6-6 6h-148c-3.3 0-6-2.68-6-6z" stroke="#c92d39" stroke-width="3" fill="#fff"/><use xlink:href="#I" transform="matrix(1,0,0,1,1712.0000000000002,376.62456813121617) translate(17.12037037037038 298.79166666666663)"/><use xlink:href="#C" transform="matrix(1,0,0,1,1712.0000000000002,376.62456813121617) translate(26.472222222222236 338.79166666666663)"/><path d="M1346.5 882.95H1156c-3.3 0-6-2.68-6-6V766.5c0-3.3-2.7-6-6-6h-32.05" stroke="#f5b5c8" stroke-width="4" fill="none"/><path d="M1348.5 884.95h-2.05v-4h2.05z" fill="#f5b5c8"/><path d="M1095.7 760.5l14.25-4.64v9.28z" stroke="#f5b5c8" stroke-width="4" fill="#f5b5c8"/><path d="M1347.37 163.03H1156c-3.3 0-6 2.7-6 6V754.5c0 3.3-2.7 6-6 6h-32.05" stroke="#f5b5c8" stroke-width="4" fill="none"/><path d="M1349.37 165.03h-2.06v-4h2.07z" fill="#f5b5c8"/><path d="M1095.7 760.5l14.25-4.64v9.28z" stroke="#f5b5c8" stroke-width="4" fill="#f5b5c8"/><path d="M1347.37 400.83H1156c-3.3 0-6 2.7-6 6V754.5c0 3.3-2.7 6-6 6h-32.05" stroke="#f5b5c8" stroke-width="4" fill="none"/><path d="M1349.37 402.83h-2.06v-4h2.07z" fill="#f5b5c8"/><path d="M1095.7 760.5l14.25-4.64v9.28z" stroke="#f5b5c8" stroke-width="4" fill="#f5b5c8"/><path d="M1346.5 650.43H1156c-3.3 0-6 2.7-6 6v98.07c0 3.3-2.7 6-6 6h-32.05" stroke="#f5b5c8" stroke-width="4" fill="none"/><path d="M1348.5 652.43h-2.05v-4h2.05z" fill="#f5b5c8"/><path d="M1095.7 760.5l14.25-4.64v9.28z" stroke="#f5b5c8" stroke-width="4" fill="#f5b5c8"/><path d="M1346.5 1129.03H1156c-3.3 0-6-2.68-6-6V766.5c0-3.3-2.7-6-6-6h-32.05" stroke="#f5b5c8" stroke-width="4" fill="none"/><path d="M1348.5 1131.03h-2.05v-4h2.05z" fill="#f5b5c8"/><path d="M1095.7 760.5l14.25-4.64v9.28z" stroke="#f5b5c8" stroke-width="4" fill="#f5b5c8"/><path d="M1347.37 1356.8H1156c-3.3 0-6-2.7-6-6V766.5c0-3.3-2.7-6-6-6h-32.05" stroke="#f5b5c8" stroke-width="4" fill="none"/><path d="M1349.37 1358.8h-2.06v-4h2.07z" fill="#f5b5c8"/><path d="M1095.7 760.5l14.25-4.64v9.28z" stroke="#f5b5c8" stroke-width="4" fill="#f5b5c8"/><path d="M1091.22 1658.43H1194c3.3 0 6-2.68 6-6v-1434c0-3.3 2.7-6 6-6h120.63" stroke="#99d2f2" stroke-width="4" fill="none"/><path d="M1091.27 1660.43h-2.05v-4h2.05z" fill="#99d2f2"/><path d="M1342.9 212.43l-14.27 4.64v-9.27z" stroke="#99d2f2" stroke-width="4" fill="#99d2f2"/><path d="M1091.22 1658.43H1194c3.3 0 6-2.68 6-6v-1193c0-3.3 2.7-6 6-6h120.63" stroke="#99d2f2" stroke-width="4" fill="none"/><path d="M1091.27 1660.43h-2.05v-4h2.05z" fill="#99d2f2"/><path d="M1342.9 453.43l-14.27 4.64v-9.27z" stroke="#99d2f2" stroke-width="4" fill="#99d2f2"/><path d="M1091.22 1658.43H1194c3.3 0 6-2.68 6-6v-952c0-3.3 2.7-6 6-6h119.76" stroke="#99d2f2" stroke-width="4" fill="none"/><path d="M1091.27 1660.43h-2.05v-4h2.05z" fill="#99d2f2"/><path d="M1342.03 694.43l-14.27 4.64v-9.27z" stroke="#99d2f2" stroke-width="4" fill="#99d2f2"/><path d="M1091.22 1658.43H1194c3.3 0 6-2.68 6-6v-470c0-3.3 2.7-6 6-6h119.76" stroke="#99d2f2" stroke-width="4" fill="none"/><path d="M1091.27 1660.43h-2.05v-4h2.05z" fill="#99d2f2"/><path d="M1342.03 1176.43l-14.27 4.64v-9.27z" stroke="#99d2f2" stroke-width="4" fill="#99d2f2"/><path d="M1091.22 1658.43H1194c3.3 0 6-2.68 6-6V1416c0-3.3 2.7-6 6-6h120.63" stroke="#99d2f2" stroke-width="4" fill="none"/><path d="M1091.27 1660.43h-2.05v-4h2.05z" fill="#99d2f2"/><path d="M1342.9 1410l-14.27 4.64v-9.28z" stroke="#99d2f2" stroke-width="4" fill="#99d2f2"/><path d="M1091.22 1658.43H1194c3.3 0 6-2.68 6-6V934.15c0-3.3 2.7-6 6-6h119.76" stroke="#99d2f2" stroke-width="4" fill="none"/><path d="M1091.27 1660.43h-2.05v-4h2.05z" fill="#99d2f2"/><path d="M1342.03 928.15l-14.27 4.64v-9.28z" stroke="#99d2f2" stroke-width="4" fill="#99d2f2"/><path d="M1091.22 1658.43h235.41" stroke="#99d2f2" stroke-width="4" fill="none"/><path d="M1091.27 1660.43h-2.05v-4h2.05z" fill="#99d2f2"/><path d="M1342.9 1658.43l-14.27 4.64v-9.27z" stroke="#99d2f2" stroke-width="4" fill="#99d2f2"/><path d="M1347.37 252.43H1256c-3.3 0-6 2.7-6 6v713.6c0 3.32-2.7 6-6 6h-131.05" stroke="#a3d977" stroke-width="4" fill="none"/><path d="M1349.37 254.43h-2.06v-4h2.07z" fill="#a3d977"/><path d="M1096.68 978.03l14.27-4.63v9.27z" stroke="#a3d977" stroke-width="4" fill="#a3d977"/><path d="M1347.37 501.35H1256c-3.3 0-6 2.68-6 6v464.68c0 3.32-2.7 6-6 6h-131.05" stroke="#a3d977" stroke-width="4" fill="none"/><path d="M1349.37 503.35h-2.06v-4h2.07z" fill="#a3d977"/><path d="M1096.68 978.03l14.27-4.63v9.27z" stroke="#a3d977" stroke-width="4" fill="#a3d977"/><path d="M1346.5 748.86H1256c-3.3 0-6 2.68-6 6v217.17c0 3.32-2.7 6-6 6h-131.05" stroke="#a3d977" stroke-width="4" fill="none"/><path d="M1348.5 750.86h-2.05v-4h2.05z" fill="#a3d977"/><path d="M1096.68 978.03l14.27-4.63v9.27z" stroke="#a3d977" stroke-width="4" fill="#a3d977"/><path d="M1346.5 978.03h-233.55" stroke="#a3d977" stroke-width="4" fill="none"/><path d="M1348.5 980.03h-2.05v-4h2.05z" fill="#a3d977"/><path d="M1096.68 978.03l14.27-4.63v9.27z" stroke="#a3d977" stroke-width="4" fill="#a3d977"/><path d="M1347.37 1704.63H1256c-3.3 0-6-2.68-6-6v-714.6c0-3.3-2.7-6-6-6h-131.05" stroke="#a3d977" stroke-width="4" fill="none"/><path d="M1349.37 1706.63h-2.06v-4h2.07z" fill="#a3d977"/><path d="M1096.68 978.03l14.27-4.63v9.27z" stroke="#a3d977" stroke-width="4" fill="#a3d977"/><path d="M1346.5 1230.03H1256c-3.3 0-6-2.68-6-6v-240c0-3.3-2.7-6-6-6h-131.05" stroke="#a3d977" stroke-width="4" fill="none"/><path d="M1348.5 1232.03h-2.05v-4h2.05z" fill="#a3d977"/><path d="M1096.68 978.03l14.27-4.63v9.27z" stroke="#a3d977" stroke-width="4" fill="#a3d977"/><path d="M1347.37 1450.8H1256c-3.3 0-6-2.7-6-6V984.03c0-3.3-2.7-6-6-6h-131.05" stroke="#a3d977" stroke-width="4" fill="none"/><path d="M1349.37 1452.8h-2.06v-4h2.07z" fill="#a3d977"/><path d="M1096.68 978.03l14.27-4.63v9.27z" stroke="#a3d977" stroke-width="4" fill="#a3d977"/><path d="M848.7 894.03c0-3.3 2.7-6 6-6h228c3.32 0 6 2.7 6 6v168c0 3.32-2.68 6-6 6h-228c-3.3 0-6-2.68-6-6z" stroke="#0c7cba" stroke-width="3" fill="#fff"/><use xlink:href="#J" transform="matrix(1,0,0,1,860.7106754816655,900.0330708661579) translate(62.67592592592595 65.66666666666666)"/><use xlink:href="#K" transform="matrix(1,0,0,1,860.7106754816655,900.0330708661579) translate(56.194444444444464 105.66666666666664)"/><path d="M968.7 1548.43v-25.33" stroke="#5e5e5e" stroke-width="2" fill="none"/><path d="M968.7 1563.7l-4.62-14.27h9.27zM968.7 1507.84l4.65 14.26h-9.27z" stroke="#5e5e5e" stroke-width="2" fill="#5e5e5e"/><path d="M1700 1093.5c0-3.3 2.7-6 6-6h148c3.3 0 6 2.7 6 6v166.93c0 3.32-2.7 6-6 6h-148c-3.3 0-6-2.68-6-6z" stroke="#c92d39" stroke-width="3" fill="#fff"/><use xlink:href="#L" transform="matrix(1,0,0,1,1712.0000000000002,1099.5000156914523) translate(31.8888888888889 65.41666666666666)"/><use xlink:href="#C" transform="matrix(1,0,0,1,1712.0000000000002,1099.5000156914523) translate(26.472222222222236 105.41666666666664)"/><path d="M847.72 1574.43c0-3.3 2.68-6 6-6h228c3.3 0 6 2.7 6 6v168c0 3.32-2.7 6-6 6h-228c-3.32 0-6-2.68-6-6z" stroke="#0c7cba" stroke-width="3" fill="#fff"/><use xlink:href="#M" transform="matrix(1,0,0,1,859.7165354330705,1580.433070866142) translate(31.287037037037067 65.66666666666666)"/><use xlink:href="#N" transform="matrix(1,0,0,1,859.7165354330705,1580.433070866142) translate(28.509259259259295 105.66666666666664)"/><path d="M848.7 1329.1c0-3.3 2.7-6 6-6h228c3.32 0 6 2.7 6 6v168c0 3.3-2.68 6-6 6h-228c-3.3 0-6-2.7-6-6z" stroke="#0c7cba" stroke-width="3" fill="#fff"/><use xlink:href="#M" transform="matrix(1,0,0,1,860.7106754816655,1335.0997375327927) translate(31.287037037037067 46.16666666666666)"/><use xlink:href="#O" transform="matrix(1,0,0,1,860.7106754816655,1335.0997375327927) translate(27.49074074074079 86.16666666666664)"/><use xlink:href="#P" transform="matrix(1,0,0,1,860.7106754816655,1335.0997375327927) translate(108 126.16666666666663)"/><path d="M847.72 676.5c0-3.3 2.68-6 6-6h228c3.3 0 6 2.7 6 6v168c0 3.3-2.7 6-6 6h-228c-3.32 0-6-2.7-6-6z" stroke="#0c7cba" stroke-width="3" fill="#fff"/><use xlink:href="#Q" transform="matrix(1,0,0,1,859.7165354330705,682.4997375328405) translate(40.592592592592624 85.16666666666666)"/><path d="M460 1329.1c0-3.3 2.7-6 6-6h228c3.3 0 6 2.7 6 6v168c0 3.3-2.7 6-6 6H466c-3.3 0-6-2.7-6-6z" stroke="#0c7cba" stroke-width="3" fill="#fff"/><use xlink:href="#R" transform="matrix(1,0,0,1,472,1335.0997375327927) translate(52.49074074074076 65.66666666666666)"/><use xlink:href="#S" transform="matrix(1,0,0,1,472,1335.0997375327927) translate(43.23148148148151 105.66666666666664)"/><path d="M848.7 370.62c0-3.3 2.7-6 6-6h228c3.32 0 6 2.7 6 6v166.8c0 3.33-2.68 6-6 6h-228c-3.3 0-6-2.67-6-6z" stroke="#0c7cba" stroke-width="3" fill="#fff"/><use xlink:href="#T" transform="matrix(1,0,0,1,860.7106754816655,376.62456813121617) translate(59.94444444444446 84.79166666666666)"/><path d="M1091.22 1658.43H1194c3.3 0 6-2.68 6-6V460.03c0-3.3-2.7-6-6-6h-81.05" stroke="#99d2f2" stroke-width="4" fill="none"/><path d="M1091.27 1660.43h-2.05v-4h2.05z" fill="#99d2f2"/><path d="M1096.68 454.03l14.27-4.64v9.26z" stroke="#99d2f2" stroke-width="4" fill="#99d2f2"/><path d="M1092.2 500.78H1244c3.3 0 6 2.7 6 6V972.8c0 3.32-2.7 6-6 6h-131.05" stroke="#a3d977" stroke-width="4" fill="none"/><path d="M1092.26 502.78h-2.05v-4h2.06z" fill="#a3d977"/><path d="M1096.68 978.8l14.27-4.63v9.27z" stroke="#a3d977" stroke-width="4" fill="#a3d977"/><path d="M1092.2 402.1h51.8c3.3 0 6 2.68 6 6v346.4c0 3.3-2.7 6-6 6h-32.05" stroke="#f5b5c8" stroke-width="4" fill="none"/><path d="M1092.26 404.1h-2.05v-4h2.06z" fill="#f5b5c8"/><path d="M1095.7 760.5l14.25-4.64v9.28z" stroke="#f5b5c8" stroke-width="4" fill="#f5b5c8"/><path d="M844.22 760.5H586c-3.3 0-6 2.7-6 6v532.36" stroke="#333" stroke-width="4" fill="none"/><path d="M846.22 762.5h-2.05v-4h2.05z" fill="#333"/><path d="M580 1315.13l-4.64-14.27h9.28z" stroke="#333" stroke-width="4" fill="#333"/><path d="M845.2 978.03H586c-3.3 0-6 2.7-6 6v314.83" stroke="#333" stroke-width="4" fill="none"/><path d="M847.2 980.03h-2.04v-4h2.05z" fill="#333"/><path d="M580 1315.13l-4.64-14.27h9.28z" stroke="#333" stroke-width="4" fill="#333"/><path d="M703.5 1413.1h32c3.3 0 6 2.7 6 6v233.33c0 3.32 2.7 6 6 6h75.98" stroke="#333" stroke-width="4" fill="none"/><path d="M703.55 1415.1h-2.05v-4h2.05z" fill="#333"/><path d="M839.74 1658.43l-14.26 4.64v-9.27z" stroke="#333" stroke-width="4" fill="#333"/><path d="M460 146c0-3.3 2.7-6 6-6h268c3.3 0 6 2.7 6 6v565.57c0 3.3-2.7 6-6 6H466c-3.3 0-6-2.7-6-6z" stroke="#5e5e5e" stroke-width="3" fill-opacity="0"/><use xlink:href="#U" transform="matrix(1,0,0,1,465,145) translate(0 21.333333333333332)"/><path d="M480 206c0-3.3 2.7-6 6-6h208c3.3 0 6 2.7 6 6v76c0 3.3-2.7 6-6 6H486c-3.3 0-6-2.7-6-6z" stroke="#0c7cba" stroke-width="3" fill="#fff"/><use xlink:href="#V" transform="matrix(1,0,0,1,492,212.00000000000136) translate(17.7777777777778 37.33333333333333)"/><use xlink:href="#W" transform="matrix(1,0,0,1,492,212.00000000000136) translate(46.444444444444464 37.33333333333333)"/><path d="M480 310c0-3.3 2.7-6 6-6h208c3.3 0 6 2.7 6 6v76c0 3.3-2.7 6-6 6H486c-3.3 0-6-2.7-6-6z" stroke="#ef8d22" stroke-width="3" fill="#fff"/><use xlink:href="#X" transform="matrix(1,0,0,1,492,316.00000000000136) translate(52.92592592592594 21.333333333333332)"/><use xlink:href="#W" transform="matrix(1,0,0,1,492,316.00000000000136) translate(32.11111111111113 53.33333333333333)"/><path d="M480 414c0-3.3 2.7-6 6-6h208c3.3 0 6 2.7 6 6v76c0 3.3-2.7 6-6 6H486c-3.3 0-6-2.7-6-6z" stroke="#c92d39" stroke-width="3" fill="#fff"/><use xlink:href="#Y" transform="matrix(1,0,0,1,492,420.0000000000014) translate(16.00000000000003 37.33333333333333)"/><use xlink:href="#Z" transform="matrix(1,0,0,1,492,420.0000000000014) translate(113.55555555555556 37.33333333333333)"/><path d="M481.42 518c0-3.3 2.68-6 6-6h205.16c3.32 0 6 2.7 6 6v76c0 3.3-2.68 6-6 6H487.42c-3.32 0-6-2.7-6-6z" stroke="#999" stroke-width="3" fill="#fff"/><use xlink:href="#aa" transform="matrix(1,0,0,1,493.41732283464563,524.0000000000014) translate(61.48148148148148 21.333333333333332)"/><use xlink:href="#W" transform="matrix(1,0,0,1,493.41732283464563,524.0000000000014) translate(31.11111111111113 53.33333333333333)"/><path d="M480 622c0-3.3 2.7-6 6-6h208c3.3 0 6 2.7 6 6v76c0 3.3-2.7 6-6 6H486c-3.3 0-6-2.7-6-6z" stroke="#333" stroke-width="3" fill="#fff"/><use xlink:href="#ab" transform="matrix(1,0,0,1,492.00000000000006,628.0000000000014) translate(40.37037037037038 21.333333333333332)"/><use xlink:href="#W" transform="matrix(1,0,0,1,492.00000000000006,628.0000000000014) translate(32.11111111111113 53.33333333333333)"/><path d="M1964.6 452.34c0-3.32 2.68-6 6-6h123.92c3.3 0 6 2.68 6 6v97.33c0 3.3-2.7 6-6 6H1970.6c-3.32 0-6-2.7-6-6z" stroke="#b2b2b2" stroke-width="3" fill="#fff"/><use xlink:href="#ac" transform="matrix(1,0,0,1,1976.591932621364,458.3370044506295) translate(19.8888888888889 26.666666666666657)"/><use xlink:href="#ad" transform="matrix(1,0,0,1,1976.591932621364,458.3370044506295) translate(11.740740740740755 66.66666666666664)"/><path d="M1884.24 501h56.11" stroke="#333" stroke-width="4" fill="none"/><path d="M1867.97 501l14.27-4.63v9.27zM1956.62 501l-14.27 4.64v-9.27z" stroke="#333" stroke-width="4" fill="#333"/><path d="M1347.37 1611.63H1156c-3.3 0-6-2.68-6-6V766.5c0-3.3-2.7-6-6-6h-32.05" stroke="#f5b5c8" stroke-width="4" fill="none"/><path d="M1349.37 1613.63h-2.06v-4h2.07z" fill="#f5b5c8"/><path d="M1095.7 760.5l14.25-4.64v9.28z" stroke="#f5b5c8" stroke-width="4" fill="#f5b5c8"/><path d="M1962.18 892.34c0-3.32 2.7-6 6-6h123.93c3.32 0 6 2.68 6 6v97.33c0 3.3-2.68 6-6 6H1968.2c-3.3 0-6-2.7-6-6z" stroke="#b2b2b2" stroke-width="3" fill="#fff"/><use xlink:href="#ae" transform="matrix(1,0,0,1,1974.183809055118,898.3373222335989) translate(19.8888888888889 26.666666666666657)"/><use xlink:href="#ad" transform="matrix(1,0,0,1,1974.183809055118,898.3373222335989) translate(11.740740740740755 66.66666666666664)"/><path d="M1884.24 941h53.7" stroke="#333" stroke-width="4" fill="none"/><path d="M1867.97 941l14.27-4.63v9.27zM1954.2 941l-14.26 4.64v-9.27z" stroke="#333" stroke-width="4" fill="#333"/><path d="M1960.6 1609.77c0-3.32 2.7-6 6-6h127.08c3.32 0 6 2.68 6 6v97.33c0 3.3-2.68 6-6 6H1966.6c-3.3 0-6-2.7-6-6z" stroke="#b2b2b2" stroke-width="3" fill="#fff"/><use xlink:href="#B" transform="matrix(1,0,0,1,1972.6090059055116,1615.7664041994742) translate(21.8888888888889 26.666666666666657)"/><use xlink:href="#ad" transform="matrix(1,0,0,1,1972.6090059055116,1615.7664041994742) translate(13.740740740740755 66.66666666666664)"/><path d="M1884.24 1658.43h52.13" stroke="#333" stroke-width="4" fill="none"/><path d="M1867.97 1658.43l14.27-4.63v9.27zM1952.64 1658.43l-14.27 4.64v-9.27z" stroke="#333" stroke-width="4" fill="#333"/><path d="M1960 1364c0-3.3 2.7-6 6-6h128.3c3.3 0 6 2.7 6 6v92c0 3.3-2.7 6-6 6H1966c-3.3 0-6-2.7-6-6z" stroke="#b2b2b2" stroke-width="3" fill="#fff"/><use xlink:href="#D" transform="matrix(1,0,0,1,1971.9999999999998,1370.0000000000018) translate(13.59259259259261 26.666666666666657)"/><use xlink:href="#ad" transform="matrix(1,0,0,1,1971.9999999999998,1370.0000000000018) translate(14.240740740740755 66.66666666666664)"/><path d="M1884.24 1410h51.52" stroke="#333" stroke-width="4" fill="none"/><path d="M1867.97 1410l14.27-4.64v9.28zM1952.03 1410l-14.27 4.64v-9.28z" stroke="#333" stroke-width="4" fill="#333"/><path d="M1961.94 1128.03c0-3.3 2.68-6 6-6h124.42c3.3 0 6 2.7 6 6v97.34c0 3.3-2.7 6-6 6h-124.42c-3.32 0-6-2.7-6-6z" stroke="#b2b2b2" stroke-width="3" fill="#fff"/><use xlink:href="#L" transform="matrix(1,0,0,1,1973.9377460629921,1134.033140405803) translate(20.3888888888889 26.666666666666657)"/><use xlink:href="#ad" transform="matrix(1,0,0,1,1973.9377460629921,1134.033140405803) translate(12.240740740740755 66.66666666666664)"/><path d="M1884.24 1176.97h53.73" stroke="#333" stroke-width="4" fill="none"/><path d="M1867.97 1176.97l14.27-4.64v9.27zM1953.97 1176.78l-14.2 4.8-.12-9.27z" stroke="#333" stroke-width="4" fill="#333"/><path d="M2030.15 743.75v65.9c0 3.32 2.68 6 6 6h419.55c3.3 0 6 2.7 6 6v45.17" stroke="#333" stroke-width="4" fill="none"/><path d="M2032.15 743.8h-4v-2.05h4z" fill="#333"/><path d="M2461.7 883.08l-4.64-14.26h9.27z" stroke="#333" stroke-width="4" fill="#333"/><path d="M1964.6 636.92c0-3.32 2.68-6 6-6h119.1c3.3 0 6 2.68 6 6v97.33c0 3.3-2.7 6-6 6h-119.1c-3.32 0-6-2.7-6-6z" stroke="#b2b2b2" stroke-width="3" fill-opacity="0"/><use xlink:href="#I" transform="matrix(1,0,0,1,1976.591932621364,642.9170418969587) translate(3.120370370370381 26.666666666666657)"/><use xlink:href="#af" transform="matrix(1,0,0,1,1976.591932621364,642.9170418969587) translate(5.944444444444457 66.66666666666664)"/><path d="M1863.5 685.58h76.85" stroke="#333" stroke-width="4" fill="none"/><path d="M1863.55 687.58h-2.05v-4h2.05z" fill="#333"/><path d="M1956.62 685.58l-14.27 4.64v-9.27z" stroke="#333" stroke-width="4" fill="#333"/><path d="M1594.24 746.63H1614c3.3 0 6 2.7 6 6V1366c0 3.3-2.7 6-6 6h-39.63" stroke="#333" stroke-width="4" fill="none"/><path d="M1577.97 746.63l14.27-4.63v9.27z" stroke="#333" stroke-width="4" fill="#333"/><path d="M1574.42 1374h-2.05v-4h2.05z" fill="#333"/><path d="M1675.76 687.52H1666c-3.3 0-6-2.68-6-6v-222.1c0-3.3-2.7-6-6-6h-58.9" stroke="#333" stroke-width="4" fill="none"/><path d="M1692.03 687.52l-14.27 4.64v-9.27zM1578.84 453.43l14.26-4.63v9.27z" stroke="#333" stroke-width="4" fill="#333"/><path d="M1675.76 687.52h-12.3c-1.9 0-3.46 1.55-3.46 3.46 0 1.9-1.55 3.45-3.45 3.45h-62.3" stroke="#333" stroke-width="4" fill="none"/><path d="M1692.03 687.52l-14.27 4.64v-9.27zM1577.97 694.43l14.27-4.63v9.27z" stroke="#333" stroke-width="4" fill="#333"/><path d="M1675.76 687.52H1666c-3.3 0-6 2.7-6 6v228.63c0 3.32-2.7 6-6 6h-28c0-3.3-2.7-6-6-6s-6 2.7-6 6h-19.76" stroke="#333" stroke-width="4" fill="none"/><path d="M1692.03 687.52l-14.27 4.64v-9.27zM1577.97 928.15l14.27-4.63v9.27z" stroke="#333" stroke-width="4" fill="#333"/><path d="M1675.76 1176.97h-40.5c-.14 0-.26-.12-.26-.27 0-.15-.12-.27-.27-.27H1626c0-3.3-2.7-6-6-6s-6 2.7-6 6h-19.76" stroke="#333" stroke-width="4" fill="none"/><path d="M1692.03 1176.97l-14.27 4.63v-9.27zM1577.97 1176.43l14.27-4.63v9.27z" stroke="#333" stroke-width="4" fill="#333"/><path d="M1675.76 1658.43h-80.66" stroke="#333" stroke-width="4" fill="none"/><path d="M1692.03 1658.43l-14.27 4.64v-9.27zM1578.84 1658.43l14.26-4.63v9.27z" stroke="#333" stroke-width="4" fill="#333"/><path d="M1675.76 1410h-80.65" stroke="#333" stroke-width="4" fill="none"/><path d="M1692.03 1410l-14.27 4.64v-9.28zM1578.84 1410l14.27-4.64v9.28z" stroke="#333" stroke-width="4" fill="#333"/><path d="M2355.76 685h-95.47c-.17 0-.3.13-.3.3 0 .15-.13.28-.3.28h-139.76" stroke="#333" stroke-width="4" fill="none"/><path d="M2372.03 685l-14.27 4.64v-9.27zM2103.67 685.58l14.27-4.63v9.27z" stroke="#333" stroke-width="4" fill="#333"/><path d="M20 1180c0-3.3 2.7-6 6-6h228c3.3 0 6 2.7 6 6v172c0 3.3-2.7 6-6 6H26c-3.3 0-6-2.7-6-6z" stroke="#0c7cba" stroke-width="3" fill="#fff"/><use xlink:href="#ag" transform="matrix(1,0,0,1,32,1186.0000000000018) translate(54.01851851851853 26.666666666666657)"/><use xlink:href="#ah" transform="matrix(1,0,0,1,32,1186.0000000000018) translate(89.85185185185185 26.666666666666657)"/><use xlink:href="#ai" transform="matrix(1,0,0,1,32,1186.0000000000018) translate(52.49074074074076 66.66666666666664)"/><use xlink:href="#aj" transform="matrix(1,0,0,1,32,1186.0000000000018) translate(45.12962962962965 106.66666666666663)"/><use xlink:href="#ak" transform="matrix(1,0,0,1,32,1186.0000000000018) translate(40.592592592592624 146.66666666666663)"/><path d="M435.76 1415.1h-26.6v-4h26.6zm-53.17-4v4h-14.3v-4zm-30.6-7.44h-4v-19h4zm0-41.44h-4v-44.87h4zm-3.93-96.72l2.9 2.9 1.03 3.8v22.7h-4v-22.16l-.6-2.26-1.4-1.4-2.27-.6h-19.65v-4h20.2zm-43.9 2.97h-19.93v-4h19.92zM452.03 1413.1l-14.27 4.64v-9.28z" fill="#333"/><path d="M458.5 1413.1l-22.74 7.4v-14.8zm-18.74 1.88l5.8-1.88-5.8-1.88zM282.24 1271.1l-14.27-4.63 14.27-4.64z" fill="#333"/><path d="M284.24 1273.86l-22.74-7.4 22.74-7.38zm-9.8-7.4l5.8 1.9v-3.77z" fill="#333"/><path d="M20 1426c0-3.3 2.7-6 6-6h228c3.3 0 6 2.7 6 6v108c0 3.3-2.7 6-6 6H26c-3.3 0-6-2.7-6-6z" stroke="#333" stroke-width="3" fill="#fff"/><g><use xlink:href="#al" transform="matrix(1,0,0,1,32,1432) translate(67.35185185185188 53.66666666666666)"/></g><path d="M352 1474.27l-1.03 3.8-2.9 2.9-3.8 1.03h-20.2v-4h19.66l2.26-.6 1.4-1.4.6-2.27v-18.03h4zm-47.84 7.73h-19.92v-4h19.92zm47.84-44.6h-4v-4.4h4zm30.6-22.3h-14.3v-4h14.3zm53.16 0h-26.6v-4h26.6zM452.03 1413.1l-14.27 4.64v-9.28z" fill="#333"/><path d="M458.5 1413.1l-22.74 7.4v-14.8zm-18.74 1.88l5.8-1.88-5.8-1.88zM282.24 1484.64l-14.27-4.64 14.27-4.64z" fill="#333"/><path d="M284.24 1487.4l-22.74-7.4 22.74-7.4zm-9.8-7.4l5.8 1.88v-3.76z" fill="#333"/><g><use xlink:href="#am" transform="matrix(1,0,0,1,331.70061728395063,1403.6604682531795) translate(0 19.555555555555557)"/></g><path d="M976.14 161.43c0-3.3 2.7-6 6-6h148c3.32 0 6 2.7 6 6v102c0 3.32-2.68 6-6 6h-148c-3.3 0-6-2.68-6-6z" stroke="#000" stroke-opacity="0" stroke-width="3" fill="#fff" fill-opacity="0"/><g><use xlink:href="#an" transform="matrix(1,0,0,1,981.1417322834646,160.43307086613737) translate(1.2932098765432158 23.11111111111111)"/><use xlink:href="#ao" transform="matrix(1,0,0,1,981.1417322834646,160.43307086613737) translate(30.864197530864196 57.77777777777777)"/><use xlink:href="#ap" transform="matrix(1,0,0,1,981.1417322834646,160.43307086613737) translate(12.567901234567906 92.44444444444444)"/></g><path d="M2204.24 212.43h153.22" stroke="#333" stroke-width="4" fill="none"/><path d="M2187.97 212.43l14.27-4.63v9.27zM2373.72 212.43l-14.26 4.64v-9.27z" stroke="#333" stroke-width="4" fill="#333"/><path d="M2044.07 163.77c0-3.32 2.7-6 6-6H2174c3.3 0 6 2.68 6 6v97.33c0 3.3-2.7 6-6 6h-123.93c-3.3 0-6-2.7-6-6z" stroke="#b2b2b2" stroke-width="3" fill="#fff"/><g><use xlink:href="#aq" transform="matrix(1,0,0,1,2056.0748031496064,169.7664041994707) translate(30.12037037037038 26.666666666666657)"/><use xlink:href="#ad" transform="matrix(1,0,0,1,2056.0748031496064,169.7664041994707) translate(11.740740740740755 66.66666666666664)"/></g><path d="M1700 128.43c0-3.3 2.7-6 6-6h148c3.3 0 6 2.7 6 6v168c0 3.32-2.7 6-6 6h-148c-3.3 0-6-2.68-6-6z" stroke="#c92d39" stroke-width="3" fill="#fff"/><g><use xlink:href="#aq" transform="matrix(1,0,0,1,1712.0000000000002,134.43307086613902) translate(42.62037037037038 65.66666666666666)"/><use xlink:href="#C" transform="matrix(1,0,0,1,1712.0000000000002,134.43307086613902) translate(26.972222222222236 105.66666666666664)"/></g><path d="M2019.84 212.43h-135.6" stroke="#333" stroke-width="4" fill="none"/><path d="M2036.1 212.43l-14.26 4.64v-9.27zM1867.97 212.43l14.27-4.63v9.27z" stroke="#333" stroke-width="4" fill="#333"/><path d="M1460.87 1751.93V1784c0 3.3-2.7 6-6 6H586c-3.3 0-6-2.7-6-6v-256.66" stroke="#333" stroke-width="4" fill="none"/><path d="M1462.87 1751.98h-4v-2.05h4z" fill="#333"/><path d="M580 1511.07l4.64 14.27h-9.28z" stroke="#333" stroke-width="4" fill="#333"/><path d="M847.72 1111.57c0-3.32 2.68-6 6-6h228c3.3 0 6 2.68 6 6v168c0 3.3-2.7 6-6 6h-228c-3.32 0-6-2.7-6-6z" stroke="#ef8d22" stroke-width="3" fill="#fff"/><g><use xlink:href="#ar" transform="matrix(1,0,0,1,859.7165354330705,1117.5664041994753) translate(19.157407407407447 85.16666666666666)"/></g><path d="M967.72 1289.07v9.8" stroke="#333" stroke-width="4" fill="none"/><path d="M969.72 1289.12h-4v-2.05h4z" fill="#333"/><path d="M967.72 1315.13l-4.64-14.27h9.27z" stroke="#333" stroke-width="4" fill="#333"/><path d="M968.7 1071.53v10.8" stroke="#333" stroke-width="4" fill="none"/><path d="M970.7 1071.58h-4v-2.05h4z" fill="#333"/><path d="M968 1097.6l-3.97-14.46 9.26.42z" stroke="#333" stroke-width="4" fill="#333"/><path d="M1091.22 1659.24H1194c3.3 0 6-2.7 6-6v-410.9c0-3.3-2.7-6-6-6h-82.05" stroke="#99d2f2" stroke-width="4" fill="none"/><path d="M1091.27 1661.24h-2.05v-4h2.05z" fill="#99d2f2"/><path d="M1095.7 1236.35l14.25-4.63v9.27z" stroke="#99d2f2" stroke-width="4" fill="#99d2f2"/><path d="M1091.22 1160.93H1244c3.3 0 6-2.7 6-6v-170.9c0-3.3-2.7-6-6-6h-131.05" stroke="#a3d977" stroke-width="4" fill="none"/><path d="M1091.27 1162.93h-2.05v-4h2.05z" fill="#a3d977"/><path d="M1096.68 978.03l14.27-4.63v9.27z" stroke="#a3d977" stroke-width="4" fill="#a3d977"/><defs><path fill="#0c7cba" d="M63-220v92h138v28H63V0H30v-248h175v28H63" id="as"/><path fill="#0c7cba" d="M47-170H22l-4-78h33" id="at"/><g id="a"><use transform="matrix(0.08641975308641973,0,0,0.08641975308641973,0,0)" xlink:href="#as"/><use transform="matrix(0.08641975308641973,0,0,0.08641975308641973,18.92592592592592,0)" xlink:href="#at"/></g><path fill="#0c7cba" d="M101-234c-31-9-42 10-38 44h38v23H63V0H32v-167H5v-23h27c-7-52 17-82 69-68v24" id="au"/><path fill="#0c7cba" d="M24 0v-261h32V0H24" id="av"/><path fill="#0c7cba" d="M24-231v-30h32v30H24zM24 0v-190h32V0H24" id="aw"/><path fill="#0c7cba" d="M177-190C167-65 218 103 67 71c-23-6-38-20-44-43l32-5c15 47 100 32 89-28v-30C133-14 115 1 83 1 29 1 15-40 15-95c0-56 16-97 71-98 29-1 48 16 59 35 1-10 0-23 2-32h30zM94-22c36 0 50-32 50-73 0-42-14-75-50-75-39 0-46 34-46 75s6 73 46 73" id="ax"/><path fill="#0c7cba" d="M106-169C34-169 62-67 57 0H25v-261h32l-1 103c12-21 28-36 61-36 89 0 53 116 60 194h-32v-121c2-32-8-49-39-48" id="ay"/><path fill="#0c7cba" d="M59-47c-2 24 18 29 38 22v24C64 9 27 4 27-40v-127H5v-23h24l9-43h21v43h35v23H59v120" id="az"/><g id="b"><use transform="matrix(0.08641975308641973,0,0,0.08641975308641973,0,0)" xlink:href="#au"/><use transform="matrix(0.08641975308641973,0,0,0.08641975308641973,8.641975308641973,0)" xlink:href="#av"/><use transform="matrix(0.08641975308641973,0,0,0.08641975308641973,15.469135802469133,0)" xlink:href="#aw"/><use transform="matrix(0.08641975308641973,0,0,0.08641975308641973,22.29629629629629,0)" xlink:href="#ax"/><use transform="matrix(0.08641975308641973,0,0,0.08641975308641973,39.58024691358024,0)" xlink:href="#ay"/><use transform="matrix(0.08641975308641973,0,0,0.08641975308641973,56.86419753086418,0)" xlink:href="#az"/></g><path fill="#0c7cba" d="M135-143c-3-34-86-38-87 0 15 53 115 12 119 90S17 21 10-45l28-5c4 36 97 45 98 0-10-56-113-15-118-90-4-57 82-63 122-42 12 7 21 19 24 35" id="aA"/><path fill="#0c7cba" d="M100-194c62-1 85 37 85 99 1 63-27 99-86 99S16-35 15-95c0-66 28-99 85-99zM99-20c44 1 53-31 53-75 0-43-8-75-51-75s-53 32-53 75 10 74 51 75" id="aB"/><path fill="#0c7cba" d="M206 0h-36l-40-164L89 0H53L-1-190h32L70-26l43-164h34l41 164 42-164h31" id="aC"/><path fill="#0c7cba" d="M141-36C126-15 110 5 73 4 37 3 15-17 15-53c-1-64 63-63 125-63 3-35-9-54-41-54-24 1-41 7-42 31l-33-3c5-37 33-52 76-52 45 0 72 20 72 64v82c-1 20 7 32 28 27v20c-31 9-61-2-59-35zM48-53c0 20 12 33 32 33 41-3 63-29 60-74-43 2-92-5-92 41" id="aD"/><path fill="#0c7cba" d="M114-163C36-179 61-72 57 0H25l-1-190h30c1 12-1 29 2 39 6-27 23-49 58-41v29" id="aE"/><path fill="#0c7cba" d="M100-194c63 0 86 42 84 106H49c0 40 14 67 53 68 26 1 43-12 49-29l28 8c-11 28-37 45-77 45C44 4 14-33 15-96c1-61 26-98 85-98zm52 81c6-60-76-77-97-28-3 7-6 17-6 28h103" id="aF"/><g id="c"><use transform="matrix(0.08641975308641973,0,0,0.08641975308641973,0,0)" xlink:href="#aA"/><use transform="matrix(0.08641975308641973,0,0,0.08641975308641973,15.555555555555552,0)" xlink:href="#aB"/><use transform="matrix(0.08641975308641973,0,0,0.08641975308641973,32.8395061728395,0)" xlink:href="#au"/><use transform="matrix(0.08641975308641973,0,0,0.08641975308641973,41.481481481481474,0)" xlink:href="#az"/><use transform="matrix(0.08641975308641973,0,0,0.08641975308641973,50.12345679012345,0)" xlink:href="#aC"/><use transform="matrix(0.08641975308641973,0,0,0.08641975308641973,72.50617283950616,0)" xlink:href="#aD"/><use transform="matrix(0.08641975308641973,0,0,0.08641975308641973,89.7901234567901,0)" xlink:href="#aE"/><use transform="matrix(0.08641975308641973,0,0,0.08641975308641973,100.07407407407405,0)" xlink:href="#aF"/></g><path fill="#b2b2b2" d="M63-220v92h138v28H63V0H30v-248h175v28H63" id="aG"/><path fill="#b2b2b2" d="M30-248c87 1 191-15 191 75 0 78-77 80-158 76V0H30v-248zm33 125c57 0 124 11 124-50 0-59-68-47-124-48v98" id="aH"/><path fill="#b2b2b2" d="M143 4C61 4 22-44 18-125c-5-107 100-154 193-111 17 8 29 25 37 43l-32 9c-13-25-37-40-76-40-61 0-88 39-88 99 0 61 29 100 91 101 35 0 62-11 79-27v-45h-74v-28h105v86C228-13 192 4 143 4" id="aI"/><path fill="#b2b2b2" d="M205 0l-28-72H64L36 0H1l101-248h38L239 0h-34zm-38-99l-47-123c-12 45-31 82-46 123h93" id="aJ"/><g id="d"><use transform="matrix(0.08641975308641973,0,0,0.08641975308641973,0,0)" xlink:href="#aG"/><use transform="matrix(0.08641975308641973,0,0,0.08641975308641973,18.92592592592592,0)" xlink:href="#aH"/><use transform="matrix(0.08641975308641973,0,0,0.08641975308641973,39.66666666666666,0)" xlink:href="#aI"/><use transform="matrix(0.08641975308641973,0,0,0.08641975308641973,63.86419753086418,0)" xlink:href="#aJ"/></g><path fill="#b2b2b2" d="M115-194c53 0 69 39 70 98 0 66-23 100-70 100C84 3 66-7 56-30L54 0H23l1-261h32v101c10-23 28-34 59-34zm-8 174c40 0 45-34 45-75 0-40-5-75-45-74-42 0-51 32-51 76 0 43 10 73 51 73" id="aK"/><path fill="#b2b2b2" d="M100-194c62-1 85 37 85 99 1 63-27 99-86 99S16-35 15-95c0-66 28-99 85-99zM99-20c44 1 53-31 53-75 0-43-8-75-51-75s-53 32-53 75 10 74 51 75" id="aL"/><path fill="#b2b2b2" d="M141-36C126-15 110 5 73 4 37 3 15-17 15-53c-1-64 63-63 125-63 3-35-9-54-41-54-24 1-41 7-42 31l-33-3c5-37 33-52 76-52 45 0 72 20 72 64v82c-1 20 7 32 28 27v20c-31 9-61-2-59-35zM48-53c0 20 12 33 32 33 41-3 63-29 60-74-43 2-92-5-92 41" id="aM"/><path fill="#b2b2b2" d="M114-163C36-179 61-72 57 0H25l-1-190h30c1 12-1 29 2 39 6-27 23-49 58-41v29" id="aN"/><path fill="#b2b2b2" d="M85-194c31 0 48 13 60 33l-1-100h32l1 261h-30c-2-10 0-23-3-31C134-8 116 4 85 4 32 4 16-35 15-94c0-66 23-100 70-100zm9 24c-40 0-46 34-46 75 0 40 6 74 45 74 42 0 51-32 51-76 0-42-9-74-50-73" id="aO"/><g id="e"><use transform="matrix(0.08641975308641973,0,0,0.08641975308641973,0,0)" xlink:href="#aK"/><use transform="matrix(0.08641975308641973,0,0,0.08641975308641973,17.283950617283946,0)" xlink:href="#aL"/><use transform="matrix(0.08641975308641973,0,0,0.08641975308641973,34.56790123456789,0)" xlink:href="#aM"/><use transform="matrix(0.08641975308641973,0,0,0.08641975308641973,51.85185185185183,0)" xlink:href="#aN"/><use transform="matrix(0.08641975308641973,0,0,0.08641975308641973,62.13580246913578,0)" xlink:href="#aO"/></g><path fill="#333" d="M30-248c87 1 191-15 191 75 0 78-77 80-158 76V0H30v-248zm33 125c57 0 124 11 124-50 0-59-68-47-124-48v98" id="aP"/><path fill="#333" d="M141-36C126-15 110 5 73 4 37 3 15-17 15-53c-1-64 63-63 125-63 3-35-9-54-41-54-24 1-41 7-42 31l-33-3c5-37 33-52 76-52 45 0 72 20 72 64v82c-1 20 7 32 28 27v20c-31 9-61-2-59-35zM48-53c0 20 12 33 32 33 41-3 63-29 60-74-43 2-92-5-92 41" id="aQ"/><path fill="#333" d="M179-190L93 31C79 59 56 82 12 73V49c39 6 53-20 64-50L1-190h34L92-34l54-156h33" id="aR"/><path fill="#333" d="M24 0v-261h32V0H24" id="aS"/><path fill="#333" d="M100-194c62-1 85 37 85 99 1 63-27 99-86 99S16-35 15-95c0-66 28-99 85-99zM99-20c44 1 53-31 53-75 0-43-8-75-51-75s-53 32-53 75 10 74 51 75" id="aT"/><path fill="#333" d="M85-194c31 0 48 13 60 33l-1-100h32l1 261h-30c-2-10 0-23-3-31C134-8 116 4 85 4 32 4 16-35 15-94c0-66 23-100 70-100zm9 24c-40 0-46 34-46 75 0 40 6 74 45 74 42 0 51-32 51-76 0-42-9-74-50-73" id="aU"/><path fill="#333" d="M135-143c-3-34-86-38-87 0 15 53 115 12 119 90S17 21 10-45l28-5c4 36 97 45 98 0-10-56-113-15-118-90-4-57 82-63 122-42 12 7 21 19 24 35" id="aV"/><g id="f"><use transform="matrix(0.08641975308641973,0,0,0.08641975308641973,0,0)" xlink:href="#aP"/><use transform="matrix(0.08641975308641973,0,0,0.08641975308641973,20.740740740740737,0)" xlink:href="#aQ"/><use transform="matrix(0.08641975308641973,0,0,0.08641975308641973,38.02469135802468,0)" xlink:href="#aR"/><use transform="matrix(0.08641975308641973,0,0,0.08641975308641973,53.58024691358023,0)" xlink:href="#aS"/><use transform="matrix(0.08641975308641973,0,0,0.08641975308641973,60.4074074074074,0)" xlink:href="#aT"/><use transform="matrix(0.08641975308641973,0,0,0.08641975308641973,77.69135802469134,0)" xlink:href="#aQ"/><use transform="matrix(0.08641975308641973,0,0,0.08641975308641973,94.97530864197529,0)" xlink:href="#aU"/><use transform="matrix(0.08641975308641973,0,0,0.08641975308641973,112.25925925925924,0)" xlink:href="#aV"/></g><path fill="#333" d="M127-220V0H93v-220H8v-28h204v28h-85" id="aW"/><path fill="#333" d="M140-251c81 0 123 46 123 126C263-46 219 4 140 4 59 4 17-45 17-125s42-126 123-126zm0 227c63 0 89-41 89-101s-29-99-89-99c-61 0-89 39-89 99S79-25 140-24" id="aX"/><path fill="#333" d="M63-220v92h138v28H63V0H30v-248h175v28H63" id="aY"/><g id="g"><use transform="matrix(0.07407407407407408,0,0,0.07407407407407408,0,0)" xlink:href="#aW"/><use transform="matrix(0.07407407407407408,0,0,0.07407407407407408,15.703703703703706,0)" xlink:href="#aX"/><use transform="matrix(0.07407407407407408,0,0,0.07407407407407408,36.44444444444445,0)" xlink:href="#aY"/></g><path fill="#333" d="M210-169c-67 3-38 105-44 169h-31v-121c0-29-5-50-35-48C34-165 62-65 56 0H25l-1-190h30c1 10-1 24 2 32 10-44 99-50 107 0 11-21 27-35 58-36 85-2 47 119 55 194h-31v-121c0-29-5-49-35-48" id="aZ"/><g id="h"><use transform="matrix(0.07407407407407408,0,0,0.07407407407407408,0,0)" xlink:href="#aZ"/><use transform="matrix(0.07407407407407408,0,0,0.07407407407407408,22.148148148148152,0)" xlink:href="#aQ"/><use transform="matrix(0.07407407407407408,0,0,0.07407407407407408,36.96296296296297,0)" xlink:href="#aV"/><use transform="matrix(0.07407407407407408,0,0,0.07407407407407408,50.296296296296305,0)" xlink:href="#aV"/></g><path fill="#333" d="M115-194c55 1 70 41 70 98S169 2 115 4C84 4 66-9 55-30l1 105H24l-1-265h31l2 30c10-21 28-34 59-34zm-8 174c40 0 45-34 45-75s-6-73-45-74c-42 0-51 32-51 76 0 43 10 73 51 73" id="ba"/><path fill="#333" d="M100-194c63 0 86 42 84 106H49c0 40 14 67 53 68 26 1 43-12 49-29l28 8c-11 28-37 45-77 45C44 4 14-33 15-96c1-61 26-98 85-98zm52 81c6-60-76-77-97-28-3 7-6 17-6 28h103" id="bb"/><path fill="#333" d="M96-169c-40 0-48 33-48 73s9 75 48 75c24 0 41-14 43-38l32 2c-6 37-31 61-74 61-59 0-76-41-82-99-10-93 101-131 147-64 4 7 5 14 7 22l-32 3c-4-21-16-35-41-35" id="bc"/><path fill="#333" d="M59-47c-2 24 18 29 38 22v24C64 9 27 4 27-40v-127H5v-23h24l9-43h21v43h35v23H59v120" id="bd"/><path fill="#333" d="M114-163C36-179 61-72 57 0H25l-1-190h30c1 12-1 29 2 39 6-27 23-49 58-41v29" id="be"/><g id="i"><use transform="matrix(0.07407407407407408,0,0,0.07407407407407408,0,0)" xlink:href="#aV"/><use transform="matrix(0.07407407407407408,0,0,0.07407407407407408,13.333333333333336,0)" xlink:href="#ba"/><use transform="matrix(0.07407407407407408,0,0,0.07407407407407408,28.148148148148152,0)" xlink:href="#bb"/><use transform="matrix(0.07407407407407408,0,0,0.07407407407407408,42.96296296296297,0)" xlink:href="#bc"/><use transform="matrix(0.07407407407407408,0,0,0.07407407407407408,56.296296296296305,0)" xlink:href="#bd"/><use transform="matrix(0.07407407407407408,0,0,0.07407407407407408,63.70370370370371,0)" xlink:href="#be"/><use transform="matrix(0.07407407407407408,0,0,0.07407407407407408,72.51851851851853,0)" xlink:href="#aT"/><use transform="matrix(0.07407407407407408,0,0,0.07407407407407408,87.33333333333334,0)" xlink:href="#aZ"/><use transform="matrix(0.07407407407407408,0,0,0.07407407407407408,109.4814814814815,0)" xlink:href="#bb"/><use transform="matrix(0.07407407407407408,0,0,0.07407407407407408,124.29629629629632,0)" xlink:href="#bd"/><use transform="matrix(0.07407407407407408,0,0,0.07407407407407408,131.70370370370372,0)" xlink:href="#bb"/><use transform="matrix(0.07407407407407408,0,0,0.07407407407407408,146.51851851851853,0)" xlink:href="#be"/></g><path fill="#333" d="M185-189c-5-48-123-54-124 2 14 75 158 14 163 119 3 78-121 87-175 55-17-10-28-26-33-46l33-7c5 56 141 63 141-1 0-78-155-14-162-118-5-82 145-84 179-34 5 7 8 16 11 25" id="bf"/><path fill="#333" d="M33 0v-248h34V0H33" id="bg"/><g id="j"><use transform="matrix(0.06790123456790123,0,0,0.06790123456790123,0,0)" xlink:href="#bf"/><use transform="matrix(0.06790123456790123,0,0,0.06790123456790123,16.296296296296294,0)" xlink:href="#aP"/><use transform="matrix(0.06790123456790123,0,0,0.06790123456790123,32.59259259259259,0)" xlink:href="#bg"/></g><g id="k"><use transform="matrix(0.06790123456790123,0,0,0.06790123456790123,0,0)" xlink:href="#bd"/><use transform="matrix(0.06790123456790123,0,0,0.06790123456790123,6.790123456790123,0)" xlink:href="#aT"/></g><path fill="#333" d="M212-179c-10-28-35-45-73-45-59 0-87 40-87 99 0 60 29 101 89 101 43 0 62-24 78-52l27 14C228-24 195 4 139 4 59 4 22-46 18-125c-6-104 99-153 187-111 19 9 31 26 39 46" id="bh"/><path fill="#333" d="M205 0l-28-72H64L36 0H1l101-248h38L239 0h-34zm-38-99l-47-123c-12 45-31 82-46 123h93" id="bi"/><path fill="#333" d="M190 0L58-211 59 0H30v-248h39L202-35l-2-213h31V0h-41" id="bj"/><g id="l"><use transform="matrix(0.06790123456790123,0,0,0.06790123456790123,0,0)" xlink:href="#bh"/><use transform="matrix(0.06790123456790123,0,0,0.06790123456790123,17.586419753086417,0)" xlink:href="#bi"/><use transform="matrix(0.06790123456790123,0,0,0.06790123456790123,33.88271604938271,0)" xlink:href="#bj"/></g><path fill="#333" d="M143 4C61 4 22-44 18-125c-5-107 100-154 193-111 17 8 29 25 37 43l-32 9c-13-25-37-40-76-40-61 0-88 39-88 99 0 61 29 100 91 101 35 0 62-11 79-27v-45h-74v-28h105v86C228-13 192 4 143 4" id="bk"/><g id="m"><use transform="matrix(0.07407407407407408,0,0,0.07407407407407408,0,0)" xlink:href="#bk"/><use transform="matrix(0.07407407407407408,0,0,0.07407407407407408,20.740740740740744,0)" xlink:href="#bj"/><use transform="matrix(0.07407407407407408,0,0,0.07407407407407408,39.92592592592593,0)" xlink:href="#bf"/><use transform="matrix(0.07407407407407408,0,0,0.07407407407407408,57.70370370370371,0)" xlink:href="#bf"/></g><path fill="#333" d="M195 0l-74-108L45 0H8l94-129-87-119h37l69 98 67-98h37l-84 118L233 0h-38" id="bl"/><path fill="#333" d="M16-82v-28h88v28H16" id="bm"/><path fill="#333" d="M115-194c53 0 69 39 70 98 0 66-23 100-70 100C84 3 66-7 56-30L54 0H23l1-261h32v101c10-23 28-34 59-34zm-8 174c40 0 45-34 45-75 0-40-5-75-45-74-42 0-51 32-51 76 0 43 10 73 51 73" id="bn"/><path fill="#333" d="M117-194c89-4 53 116 60 194h-32v-121c0-31-8-49-39-48C34-167 62-67 57 0H25l-1-190h30c1 10-1 24 2 32 11-22 29-35 61-36" id="bo"/><g id="n"><use transform="matrix(0.07407407407407408,0,0,0.07407407407407408,0,0)" xlink:href="#bl"/><use transform="matrix(0.07407407407407408,0,0,0.07407407407407408,17.77777777777778,0)" xlink:href="#bm"/><use transform="matrix(0.07407407407407408,0,0,0.07407407407407408,26.592592592592595,0)" xlink:href="#bn"/><use transform="matrix(0.07407407407407408,0,0,0.07407407407407408,41.40740740740741,0)" xlink:href="#aQ"/><use transform="matrix(0.07407407407407408,0,0,0.07407407407407408,56.22222222222223,0)" xlink:href="#bo"/><use transform="matrix(0.07407407407407408,0,0,0.07407407407407408,71.03703703703704,0)" xlink:href="#aU"/></g><path fill="#333" d="M24-231v-30h32v30H24zM24 0v-190h32V0H24" id="bp"/><g id="o"><use transform="matrix(0.07407407407407408,0,0,0.07407407407407408,0,0)" xlink:href="#bd"/><use transform="matrix(0.07407407407407408,0,0,0.07407407407407408,7.407407407407408,0)" xlink:href="#be"/><use transform="matrix(0.07407407407407408,0,0,0.07407407407407408,16.222222222222225,0)" xlink:href="#aQ"/><use transform="matrix(0.07407407407407408,0,0,0.07407407407407408,31.03703703703704,0)" xlink:href="#bo"/><use transform="matrix(0.07407407407407408,0,0,0.07407407407407408,45.851851851851855,0)" xlink:href="#aV"/><use transform="matrix(0.07407407407407408,0,0,0.07407407407407408,59.185185185185205,0)" xlink:href="#aZ"/><use transform="matrix(0.07407407407407408,0,0,0.07407407407407408,81.33333333333334,0)" xlink:href="#bp"/><use transform="matrix(0.07407407407407408,0,0,0.07407407407407408,87.18518518518519,0)" xlink:href="#bd"/><use transform="matrix(0.07407407407407408,0,0,0.07407407407407408,94.5925925925926,0)" xlink:href="#bd"/><use transform="matrix(0.07407407407407408,0,0,0.07407407407407408,102,0)" xlink:href="#bb"/><use transform="matrix(0.07407407407407408,0,0,0.07407407407407408,116.81481481481481,0)" xlink:href="#be"/></g><path fill="#333" d="M137 0h-34L2-248h35l83 218 83-218h36" id="bq"/><path fill="#333" d="M197 0v-115H63V0H30v-248h33v105h134v-105h34V0h-34" id="br"/><path fill="#333" d="M0 4l72-265h28L28 4H0" id="bs"/><path fill="#333" d="M232-93c-1 65-40 97-104 97C67 4 28-28 28-90v-158h33c8 89-33 224 67 224 102 0 64-133 71-224h33v155" id="bt"/><g id="p"><use transform="matrix(0.06172839506172839,0,0,0.06172839506172839,0,0)" xlink:href="#bq"/><use transform="matrix(0.06172839506172839,0,0,0.06172839506172839,14.814814814814813,0)" xlink:href="#br"/><use transform="matrix(0.06172839506172839,0,0,0.06172839506172839,30.80246913580247,0)" xlink:href="#aY"/><use transform="matrix(0.06172839506172839,0,0,0.06172839506172839,44.32098765432099,0)" xlink:href="#bs"/><use transform="matrix(0.06172839506172839,0,0,0.06172839506172839,50.49382716049383,0)" xlink:href="#bt"/><use transform="matrix(0.06172839506172839,0,0,0.06172839506172839,66.48148148148148,0)" xlink:href="#br"/><use transform="matrix(0.06172839506172839,0,0,0.06172839506172839,82.46913580246914,0)" xlink:href="#aY"/></g><path fill="#333" d="M108 0H70L1-190h34L89-25l56-165h34" id="bu"/><g id="q"><use transform="matrix(0.06172839506172839,0,0,0.06172839506172839,0,0)" xlink:href="#bd"/><use transform="matrix(0.06172839506172839,0,0,0.06172839506172839,6.172839506172839,0)" xlink:href="#be"/><use transform="matrix(0.06172839506172839,0,0,0.06172839506172839,13.518518518518519,0)" xlink:href="#aQ"/><use transform="matrix(0.06172839506172839,0,0,0.06172839506172839,25.864197530864196,0)" xlink:href="#bo"/><use transform="matrix(0.06172839506172839,0,0,0.06172839506172839,38.20987654320987,0)" xlink:href="#aV"/><use transform="matrix(0.06172839506172839,0,0,0.06172839506172839,49.32098765432099,0)" xlink:href="#bc"/><use transform="matrix(0.06172839506172839,0,0,0.06172839506172839,60.4320987654321,0)" xlink:href="#bb"/><use transform="matrix(0.06172839506172839,0,0,0.06172839506172839,72.77777777777779,0)" xlink:href="#bp"/><use transform="matrix(0.06172839506172839,0,0,0.06172839506172839,77.65432098765433,0)" xlink:href="#bu"/><use transform="matrix(0.06172839506172839,0,0,0.06172839506172839,88.76543209876544,0)" xlink:href="#bb"/><use transform="matrix(0.06172839506172839,0,0,0.06172839506172839,101.11111111111113,0)" xlink:href="#be"/></g><path fill="#333" d="M233-177c-1 41-23 64-60 70L243 0h-38l-65-103H63V0H30v-248c88 3 205-21 203 71zM63-129c60-2 137 13 137-47 0-61-80-42-137-45v92" id="bv"/><g id="r"><use transform="matrix(0.07407407407407408,0,0,0.07407407407407408,0,0)" xlink:href="#bv"/><use transform="matrix(0.07407407407407408,0,0,0.07407407407407408,19.185185185185187,0)" xlink:href="#bs"/><use transform="matrix(0.07407407407407408,0,0,0.07407407407407408,26.592592592592595,0)" xlink:href="#bi"/></g><g id="s"><use transform="matrix(0.07407407407407408,0,0,0.07407407407407408,0,0)" xlink:href="#bd"/><use transform="matrix(0.07407407407407408,0,0,0.07407407407407408,7.407407407407408,0)" xlink:href="#be"/><use transform="matrix(0.07407407407407408,0,0,0.07407407407407408,16.222222222222225,0)" xlink:href="#aQ"/><use transform="matrix(0.07407407407407408,0,0,0.07407407407407408,31.03703703703704,0)" xlink:href="#bo"/><use transform="matrix(0.07407407407407408,0,0,0.07407407407407408,45.851851851851855,0)" xlink:href="#aV"/><use transform="matrix(0.07407407407407408,0,0,0.07407407407407408,59.185185185185205,0)" xlink:href="#ba"/><use transform="matrix(0.07407407407407408,0,0,0.07407407407407408,74.00000000000001,0)" xlink:href="#aT"/><use transform="matrix(0.07407407407407408,0,0,0.07407407407407408,88.81481481481484,0)" xlink:href="#bo"/><use transform="matrix(0.07407407407407408,0,0,0.07407407407407408,103.62962962962965,0)" xlink:href="#aU"/><use transform="matrix(0.07407407407407408,0,0,0.07407407407407408,118.44444444444446,0)" xlink:href="#bb"/><use transform="matrix(0.07407407407407408,0,0,0.07407407407407408,133.25925925925927,0)" xlink:href="#be"/></g><path fill="#333" d="M30-248c118-7 216 8 213 122C240-48 200 0 122 0H30v-248zM63-27c89 8 146-16 146-99s-60-101-146-95v194" id="bw"/><g id="t"><use transform="matrix(0.06172839506172839,0,0,0.06172839506172839,0,0)" xlink:href="#bi"/><use transform="matrix(0.06172839506172839,0,0,0.06172839506172839,14.814814814814813,0)" xlink:href="#bw"/><use transform="matrix(0.06172839506172839,0,0,0.06172839506172839,30.80246913580247,0)" xlink:href="#bh"/><use transform="matrix(0.06172839506172839,0,0,0.06172839506172839,46.79012345679012,0)" xlink:href="#bf"/></g><path fill="#333" d="M30 0v-248h187v28H63v79h144v27H63v87h162V0H30" id="bx"/><g id="u"><use transform="matrix(0.07407407407407408,0,0,0.07407407407407408,0,0)" xlink:href="#bx"/><use transform="matrix(0.07407407407407408,0,0,0.07407407407407408,17.77777777777778,0)" xlink:href="#aP"/><use transform="matrix(0.07407407407407408,0,0,0.07407407407407408,35.55555555555556,0)" xlink:href="#bf"/></g><g id="v"><use transform="matrix(0.09259259259259256,0,0,0.09259259259259256,0,0)" xlink:href="#bv"/><use transform="matrix(0.09259259259259256,0,0,0.09259259259259256,23.981481481481474,0)" xlink:href="#bi"/></g><g id="w"><use transform="matrix(0.09259259259259256,0,0,0.09259259259259256,0,0)" xlink:href="#aW"/><use transform="matrix(0.09259259259259256,0,0,0.09259259259259256,19.07407407407407,0)" xlink:href="#be"/><use transform="matrix(0.09259259259259256,0,0,0.09259259259259256,30.092592592592588,0)" xlink:href="#aQ"/><use transform="matrix(0.09259259259259256,0,0,0.09259259259259256,48.61111111111111,0)" xlink:href="#bo"/><use transform="matrix(0.09259259259259256,0,0,0.09259259259259256,67.12962962962962,0)" xlink:href="#aV"/><use transform="matrix(0.09259259259259256,0,0,0.09259259259259256,83.79629629629628,0)" xlink:href="#ba"/><use transform="matrix(0.09259259259259256,0,0,0.09259259259259256,102.31481481481478,0)" xlink:href="#aT"/><use transform="matrix(0.09259259259259256,0,0,0.09259259259259256,120.83333333333329,0)" xlink:href="#bo"/><use transform="matrix(0.09259259259259256,0,0,0.09259259259259256,139.3518518518518,0)" xlink:href="#aU"/><use transform="matrix(0.09259259259259256,0,0,0.09259259259259256,157.8703703703703,0)" xlink:href="#bb"/><use transform="matrix(0.09259259259259256,0,0,0.09259259259259256,176.3888888888888,0)" xlink:href="#be"/></g><g id="x"><use transform="matrix(0.09259259259259256,0,0,0.09259259259259256,0,0)" xlink:href="#aW"/><use transform="matrix(0.09259259259259256,0,0,0.09259259259259256,19.629629629629623,0)" xlink:href="#aX"/><use transform="matrix(0.09259259259259256,0,0,0.09259259259259256,45.55555555555554,0)" xlink:href="#aY"/></g><g id="y"><use transform="matrix(0.09259259259259256,0,0,0.09259259259259256,0,0)" xlink:href="#bk"/><use transform="matrix(0.09259259259259256,0,0,0.09259259259259256,25.925925925925917,0)" xlink:href="#bj"/><use transform="matrix(0.09259259259259256,0,0,0.09259259259259256,49.90740740740739,0)" xlink:href="#bf"/><use transform="matrix(0.09259259259259256,0,0,0.09259259259259256,72.1296296296296,0)" xlink:href="#bf"/></g><g id="z"><use transform="matrix(0.09259259259259256,0,0,0.09259259259259256,0,0)" xlink:href="#bi"/><use transform="matrix(0.09259259259259256,0,0,0.09259259259259256,22.222222222222214,0)" xlink:href="#bw"/><use transform="matrix(0.09259259259259256,0,0,0.09259259259259256,46.20370370370369,0)" xlink:href="#bh"/><use transform="matrix(0.09259259259259256,0,0,0.09259259259259256,70.18518518518516,0)" xlink:href="#bf"/></g><g id="A"><use transform="matrix(0.09259259259259256,0,0,0.09259259259259256,0,0)" xlink:href="#bx"/><use transform="matrix(0.09259259259259256,0,0,0.09259259259259256,22.222222222222214,0)" xlink:href="#aP"/><use transform="matrix(0.09259259259259256,0,0,0.09259259259259256,44.44444444444443,0)" xlink:href="#bf"/></g><path fill="#333" d="M126-127c33 6 58 20 58 59 0 88-139 92-164 29-3-8-5-16-6-25l32-3c6 27 21 44 54 44 32 0 52-15 52-46 0-38-36-46-79-43v-28c39 1 72-4 72-42 0-27-17-43-46-43-28 0-47 15-49 41l-32-3c6-42 35-63 81-64 48-1 79 21 79 65 0 36-21 52-52 59" id="by"/><g id="B"><use transform="matrix(0.09259259259259256,0,0,0.09259259259259256,0,0)" xlink:href="#bf"/><use transform="matrix(0.09259259259259256,0,0,0.09259259259259256,22.222222222222214,0)" xlink:href="#aP"/><use transform="matrix(0.09259259259259256,0,0,0.09259259259259256,44.44444444444443,0)" xlink:href="#bg"/><use transform="matrix(0.09259259259259256,0,0,0.09259259259259256,53.70370370370368,0)" xlink:href="#by"/></g><g id="C"><use transform="matrix(0.09259259259259256,0,0,0.09259259259259256,0,0)" xlink:href="#aU"/><use transform="matrix(0.09259259259259256,0,0,0.09259259259259256,18.518518518518512,0)" xlink:href="#be"/><use transform="matrix(0.09259259259259256,0,0,0.09259259259259256,29.537037037037027,0)" xlink:href="#bp"/><use transform="matrix(0.09259259259259256,0,0,0.09259259259259256,36.85185185185184,0)" xlink:href="#bu"/><use transform="matrix(0.09259259259259256,0,0,0.09259259259259256,53.51851851851851,0)" xlink:href="#bb"/><use transform="matrix(0.09259259259259256,0,0,0.09259259259259256,72.03703703703701,0)" xlink:href="#be"/></g><g id="D"><use transform="matrix(0.09259259259259256,0,0,0.09259259259259256,0,0)" xlink:href="#bt"/><use transform="matrix(0.09259259259259256,0,0,0.09259259259259256,23.981481481481474,0)" xlink:href="#bi"/><use transform="matrix(0.09259259259259256,0,0,0.09259259259259256,46.20370370370369,0)" xlink:href="#bv"/><use transform="matrix(0.09259259259259256,0,0,0.09259259259259256,69.53703703703701,0)" xlink:href="#aW"/></g><path fill="#333" d="M106-169C34-169 62-67 57 0H25v-261h32l-1 103c12-21 28-36 61-36 89 0 53 116 60 194h-32v-121c2-32-8-49-39-48" id="bz"/><path fill="#333" d="M101-234c-31-9-42 10-38 44h38v23H63V0H32v-167H5v-23h27c-7-52 17-82 69-68v24" id="bA"/><g id="E"><use transform="matrix(0.09259259259259256,0,0,0.09259259259259256,0,0)" xlink:href="#bq"/><use transform="matrix(0.09259259259259256,0,0,0.09259259259259256,22.222222222222214,0)" xlink:href="#bz"/><use transform="matrix(0.09259259259259256,0,0,0.09259259259259256,40.740740740740726,0)" xlink:href="#bA"/><use transform="matrix(0.09259259259259256,0,0,0.09259259259259256,49.999999999999986,0)" xlink:href="#bt"/><use transform="matrix(0.09259259259259256,0,0,0.09259259259259256,73.98148148148147,0)" xlink:href="#bz"/><use transform="matrix(0.09259259259259256,0,0,0.09259259259259256,92.49999999999997,0)" xlink:href="#bA"/></g><g id="F"><use transform="matrix(0.09259259259259256,0,0,0.09259259259259256,0,0)" xlink:href="#aW"/><use transform="matrix(0.09259259259259256,0,0,0.09259259259259256,19.07407407407407,0)" xlink:href="#be"/><use transform="matrix(0.09259259259259256,0,0,0.09259259259259256,30.092592592592588,0)" xlink:href="#aQ"/><use transform="matrix(0.09259259259259256,0,0,0.09259259259259256,48.61111111111111,0)" xlink:href="#bo"/><use transform="matrix(0.09259259259259256,0,0,0.09259259259259256,67.12962962962962,0)" xlink:href="#aV"/><use transform="matrix(0.09259259259259256,0,0,0.09259259259259256,83.79629629629628,0)" xlink:href="#bc"/><use transform="matrix(0.09259259259259256,0,0,0.09259259259259256,100.46296296296293,0)" xlink:href="#bb"/><use transform="matrix(0.09259259259259256,0,0,0.09259259259259256,118.98148148148144,0)" xlink:href="#bp"/><use transform="matrix(0.09259259259259256,0,0,0.09259259259259256,126.29629629629625,0)" xlink:href="#bu"/><use transform="matrix(0.09259259259259256,0,0,0.09259259259259256,142.9629629629629,0)" xlink:href="#bb"/><use transform="matrix(0.09259259259259256,0,0,0.09259259259259256,161.4814814814814,0)" xlink:href="#be"/></g><path fill="#333" d="M160-131c35 5 61 23 61 61C221 17 115-2 30 0v-248c76 3 177-17 177 60 0 33-19 50-47 57zm-97-11c50-1 110 9 110-42 0-47-63-36-110-37v79zm0 115c55-2 124 14 124-45 0-56-70-42-124-44v89" id="bB"/><g id="G"><use transform="matrix(0.09259259259259256,0,0,0.09259259259259256,0,0)" xlink:href="#bl"/><use transform="matrix(0.09259259259259256,0,0,0.09259259259259256,22.222222222222214,0)" xlink:href="#bB"/><use transform="matrix(0.09259259259259256,0,0,0.09259259259259256,44.44444444444443,0)" xlink:href="#aQ"/><use transform="matrix(0.09259259259259256,0,0,0.09259259259259256,62.96296296296294,0)" xlink:href="#bo"/><use transform="matrix(0.09259259259259256,0,0,0.09259259259259256,81.48148148148145,0)" xlink:href="#aU"/></g><g id="H"><use transform="matrix(0.09259259259259256,0,0,0.09259259259259256,0,0)" xlink:href="#aW"/><use transform="matrix(0.09259259259259256,0,0,0.09259259259259256,19.07407407407407,0)" xlink:href="#be"/><use transform="matrix(0.09259259259259256,0,0,0.09259259259259256,30.092592592592588,0)" xlink:href="#aQ"/><use transform="matrix(0.09259259259259256,0,0,0.09259259259259256,48.61111111111111,0)" xlink:href="#bo"/><use transform="matrix(0.09259259259259256,0,0,0.09259259259259256,67.12962962962962,0)" xlink:href="#aV"/><use transform="matrix(0.09259259259259256,0,0,0.09259259259259256,83.79629629629628,0)" xlink:href="#aZ"/><use transform="matrix(0.09259259259259256,0,0,0.09259259259259256,111.48148148148147,0)" xlink:href="#bp"/><use transform="matrix(0.09259259259259256,0,0,0.09259259259259256,118.79629629629625,0)" xlink:href="#bd"/><use transform="matrix(0.09259259259259256,0,0,0.09259259259259256,128.05555555555551,0)" xlink:href="#bd"/><use transform="matrix(0.09259259259259256,0,0,0.09259259259259256,137.31481481481478,0)" xlink:href="#bb"/><use transform="matrix(0.09259259259259256,0,0,0.09259259259259256,155.8333333333333,0)" xlink:href="#be"/></g><path fill="#333" d="M27 0v-27h64v-190l-56 39v-29l58-41h29v221h61V0H27" id="bC"/><path fill="#333" d="M101-251c82-7 93 87 43 132L82-64C71-53 59-42 53-27h129V0H18c2-99 128-94 128-182 0-28-16-43-45-43s-46 15-49 41l-32-3c6-41 34-60 81-64" id="bD"/><g id="I"><use transform="matrix(0.09259259259259256,0,0,0.09259259259259256,0,0)" xlink:href="#bf"/><use transform="matrix(0.09259259259259256,0,0,0.09259259259259256,22.222222222222214,0)" xlink:href="#aP"/><use transform="matrix(0.09259259259259256,0,0,0.09259259259259256,44.44444444444443,0)" xlink:href="#bg"/><use transform="matrix(0.09259259259259256,0,0,0.09259259259259256,53.70370370370368,0)" xlink:href="#bC"/><use transform="matrix(0.09259259259259256,0,0,0.09259259259259256,72.2222222222222,0)" xlink:href="#bm"/><use transform="matrix(0.09259259259259256,0,0,0.09259259259259256,83.24074074074072,0)" xlink:href="#bD"/></g><g id="J"><use transform="matrix(0.09259259259259256,0,0,0.09259259259259256,0,0)" xlink:href="#bi"/><use transform="matrix(0.09259259259259256,0,0,0.09259259259259256,22.222222222222214,0)" xlink:href="#bc"/><use transform="matrix(0.09259259259259256,0,0,0.09259259259259256,38.88888888888887,0)" xlink:href="#bd"/><use transform="matrix(0.09259259259259256,0,0,0.09259259259259256,48.148148148148124,0)" xlink:href="#bp"/><use transform="matrix(0.09259259259259256,0,0,0.09259259259259256,55.46296296296293,0)" xlink:href="#bu"/><use transform="matrix(0.09259259259259256,0,0,0.09259259259259256,72.12962962962959,0)" xlink:href="#bb"/></g><path fill="#333" d="M30 0v-248h33v221h125V0H30" id="bE"/><path fill="#333" d="M177-190C167-65 218 103 67 71c-23-6-38-20-44-43l32-5c15 47 100 32 89-28v-30C133-14 115 1 83 1 29 1 15-40 15-95c0-56 16-97 71-98 29-1 48 16 59 35 1-10 0-23 2-32h30zM94-22c36 0 50-32 50-73 0-42-14-75-50-75-39 0-46 34-46 75s6 73 46 73" id="bF"/><g id="K"><use transform="matrix(0.09259259259259256,0,0,0.09259259259259256,0,0)" xlink:href="#bE"/><use transform="matrix(0.09259259259259256,0,0,0.09259259259259256,18.518518518518512,0)" xlink:href="#aT"/><use transform="matrix(0.09259259259259256,0,0,0.09259259259259256,37.037037037037024,0)" xlink:href="#bF"/><use transform="matrix(0.09259259259259256,0,0,0.09259259259259256,55.555555555555536,0)" xlink:href="#bF"/><use transform="matrix(0.09259259259259256,0,0,0.09259259259259256,74.07407407407405,0)" xlink:href="#bb"/><use transform="matrix(0.09259259259259256,0,0,0.09259259259259256,92.59259259259255,0)" xlink:href="#be"/></g><path fill="#333" d="M155-56V0h-30v-56H8v-25l114-167h33v167h35v25h-35zm-30-156c-27 46-58 90-88 131h88v-131" id="bG"/><g id="L"><use transform="matrix(0.09259259259259256,0,0,0.09259259259259256,0,0)" xlink:href="#bf"/><use transform="matrix(0.09259259259259256,0,0,0.09259259259259256,22.222222222222214,0)" xlink:href="#aP"/><use transform="matrix(0.09259259259259256,0,0,0.09259259259259256,44.44444444444443,0)" xlink:href="#bg"/><use transform="matrix(0.09259259259259256,0,0,0.09259259259259256,53.70370370370368,0)" xlink:href="#bG"/></g><g id="M"><use transform="matrix(0.09259259259259256,0,0,0.09259259259259256,0,0)" xlink:href="#bh"/><use transform="matrix(0.09259259259259256,0,0,0.09259259259259256,23.981481481481474,0)" xlink:href="#aT"/><use transform="matrix(0.09259259259259256,0,0,0.09259259259259256,42.499999999999986,0)" xlink:href="#aZ"/><use transform="matrix(0.09259259259259256,0,0,0.09259259259259256,70.18518518518516,0)" xlink:href="#aZ"/><use transform="matrix(0.09259259259259256,0,0,0.09259259259259256,97.87037037037034,0)" xlink:href="#aQ"/><use transform="matrix(0.09259259259259256,0,0,0.09259259259259256,116.38888888888884,0)" xlink:href="#bo"/><use transform="matrix(0.09259259259259256,0,0,0.09259259259259256,134.90740740740736,0)" xlink:href="#aU"/></g><g id="N"><use transform="matrix(0.09259259259259256,0,0,0.09259259259259256,0,0)" xlink:href="#bw"/><use transform="matrix(0.09259259259259256,0,0,0.09259259259259256,23.981481481481474,0)" xlink:href="#bp"/><use transform="matrix(0.09259259259259256,0,0,0.09259259259259256,31.296296296296283,0)" xlink:href="#aV"/><use transform="matrix(0.09259259259259256,0,0,0.09259259259259256,47.96296296296295,0)" xlink:href="#ba"/><use transform="matrix(0.09259259259259256,0,0,0.09259259259259256,66.48148148148147,0)" xlink:href="#aQ"/><use transform="matrix(0.09259259259259256,0,0,0.09259259259259256,84.99999999999997,0)" xlink:href="#bd"/><use transform="matrix(0.09259259259259256,0,0,0.09259259259259256,94.25925925925922,0)" xlink:href="#bc"/><use transform="matrix(0.09259259259259256,0,0,0.09259259259259256,110.92592592592588,0)" xlink:href="#bz"/><use transform="matrix(0.09259259259259256,0,0,0.09259259259259256,129.4444444444444,0)" xlink:href="#bb"/><use transform="matrix(0.09259259259259256,0,0,0.09259259259259256,147.9629629629629,0)" xlink:href="#be"/></g><path fill="#333" d="M145-31C134-9 116 4 85 4 32 4 16-35 15-94c0-59 17-99 70-100 32-1 48 14 60 33 0-11-1-24 2-32h30l-1 268h-32zM93-21c41 0 51-33 51-76s-8-73-50-73c-40 0-46 35-46 75s5 74 45 74" id="bH"/><path fill="#333" d="M84 4C-5 8 30-112 23-190h32v120c0 31 7 50 39 49 72-2 45-101 50-169h31l1 190h-30c-1-10 1-25-2-33-11 22-28 36-60 37" id="bI"/><g id="O"><use transform="matrix(0.09259259259259256,0,0,0.09259259259259256,0,0)" xlink:href="#bf"/><use transform="matrix(0.09259259259259256,0,0,0.09259259259259256,22.222222222222214,0)" xlink:href="#bb"/><use transform="matrix(0.09259259259259256,0,0,0.09259259259259256,40.740740740740726,0)" xlink:href="#bH"/><use transform="matrix(0.09259259259259256,0,0,0.09259259259259256,59.25925925925924,0)" xlink:href="#bI"/><use transform="matrix(0.09259259259259256,0,0,0.09259259259259256,77.77777777777774,0)" xlink:href="#bb"/><use transform="matrix(0.09259259259259256,0,0,0.09259259259259256,96.29629629629625,0)" xlink:href="#bo"/><use transform="matrix(0.09259259259259256,0,0,0.09259259259259256,114.81481481481475,0)" xlink:href="#bc"/><use transform="matrix(0.09259259259259256,0,0,0.09259259259259256,131.4814814814814,0)" xlink:href="#bb"/><use transform="matrix(0.09259259259259256,0,0,0.09259259259259256,149.99999999999991,0)" xlink:href="#be"/></g><g id="Q"><use transform="matrix(0.09259259259259256,0,0,0.09259259259259256,0,0)" xlink:href="#aW"/><use transform="matrix(0.09259259259259256,0,0,0.09259259259259256,20.27777777777777,0)" xlink:href="#aS"/><use transform="matrix(0.09259259259259256,0,0,0.09259259259259256,27.59259259259258,0)" xlink:href="#aZ"/><use transform="matrix(0.09259259259259256,0,0,0.09259259259259256,55.27777777777776,0)" xlink:href="#bh"/><use transform="matrix(0.09259259259259256,0,0,0.09259259259259256,79.25925925925924,0)" xlink:href="#bz"/><use transform="matrix(0.09259259259259256,0,0,0.09259259259259256,97.77777777777774,0)" xlink:href="#aQ"/><use transform="matrix(0.09259259259259256,0,0,0.09259259259259256,116.29629629629625,0)" xlink:href="#bo"/></g><g id="R"><use transform="matrix(0.09259259259259256,0,0,0.09259259259259256,0,0)" xlink:href="#bk"/><use transform="matrix(0.09259259259259256,0,0,0.09259259259259256,25.925925925925917,0)" xlink:href="#be"/><use transform="matrix(0.09259259259259256,0,0,0.09259259259259256,36.94444444444443,0)" xlink:href="#aT"/><use transform="matrix(0.09259259259259256,0,0,0.09259259259259256,55.46296296296294,0)" xlink:href="#bI"/><use transform="matrix(0.09259259259259256,0,0,0.09259259259259256,73.98148148148145,0)" xlink:href="#bo"/><use transform="matrix(0.09259259259259256,0,0,0.09259259259259256,92.49999999999997,0)" xlink:href="#aU"/></g><g id="S"><use transform="matrix(0.09259259259259256,0,0,0.09259259259259256,0,0)" xlink:href="#bg"/><use transform="matrix(0.09259259259259256,0,0,0.09259259259259256,9.259259259259256,0)" xlink:href="#bo"/><use transform="matrix(0.09259259259259256,0,0,0.09259259259259256,27.777777777777768,0)" xlink:href="#bd"/><use transform="matrix(0.09259259259259256,0,0,0.09259259259259256,37.037037037037024,0)" xlink:href="#bb"/><use transform="matrix(0.09259259259259256,0,0,0.09259259259259256,55.555555555555536,0)" xlink:href="#be"/><use transform="matrix(0.09259259259259256,0,0,0.09259259259259256,66.57407407407405,0)" xlink:href="#bA"/><use transform="matrix(0.09259259259259256,0,0,0.09259259259259256,75.8333333333333,0)" xlink:href="#aQ"/><use transform="matrix(0.09259259259259256,0,0,0.09259259259259256,94.35185185185182,0)" xlink:href="#bc"/><use transform="matrix(0.09259259259259256,0,0,0.09259259259259256,111.01851851851848,0)" xlink:href="#bb"/></g><g id="T"><use transform="matrix(0.09259259259259256,0,0,0.09259259259259256,0,0)" xlink:href="#br"/><use transform="matrix(0.09259259259259256,0,0,0.09259259259259256,23.981481481481474,0)" xlink:href="#bb"/><use transform="matrix(0.09259259259259256,0,0,0.09259259259259256,42.499999999999986,0)" xlink:href="#aQ"/><use transform="matrix(0.09259259259259256,0,0,0.09259259259259256,61.0185185185185,0)" xlink:href="#aS"/><use transform="matrix(0.09259259259259256,0,0,0.09259259259259256,68.33333333333331,0)" xlink:href="#bd"/><use transform="matrix(0.09259259259259256,0,0,0.09259259259259256,77.59259259259257,0)" xlink:href="#bz"/></g><g id="U"><use transform="matrix(0.07407407407407407,0,0,0.07407407407407407,0,0)" xlink:href="#bE"/><use transform="matrix(0.07407407407407407,0,0,0.07407407407407407,14.814814814814813,0)" xlink:href="#bb"/><use transform="matrix(0.07407407407407407,0,0,0.07407407407407407,29.629629629629626,0)" xlink:href="#bF"/><use transform="matrix(0.07407407407407407,0,0,0.07407407407407407,44.44444444444444,0)" xlink:href="#bb"/><use transform="matrix(0.07407407407407407,0,0,0.07407407407407407,59.25925925925925,0)" xlink:href="#bo"/><use transform="matrix(0.07407407407407407,0,0,0.07407407407407407,74.07407407407406,0)" xlink:href="#aU"/></g><path fill="#333" d="M47-170H22l-4-78h33" id="bJ"/><g id="V"><use transform="matrix(0.07407407407407407,0,0,0.07407407407407407,0,0)" xlink:href="#aY"/><use transform="matrix(0.07407407407407407,0,0,0.07407407407407407,16.22222222222222,0)" xlink:href="#bJ"/></g><g id="W"><use transform="matrix(0.07407407407407407,0,0,0.07407407407407407,0,0)" xlink:href="#bc"/><use transform="matrix(0.07407407407407407,0,0,0.07407407407407407,13.333333333333332,0)" xlink:href="#aT"/><use transform="matrix(0.07407407407407407,0,0,0.07407407407407407,28.148148148148145,0)" xlink:href="#aZ"/><use transform="matrix(0.07407407407407407,0,0,0.07407407407407407,50.29629629629629,0)" xlink:href="#ba"/><use transform="matrix(0.07407407407407407,0,0,0.07407407407407407,65.1111111111111,0)" xlink:href="#aT"/><use transform="matrix(0.07407407407407407,0,0,0.07407407407407407,79.92592592592591,0)" xlink:href="#bo"/><use transform="matrix(0.07407407407407407,0,0,0.07407407407407407,94.74074074074072,0)" xlink:href="#bb"/><use transform="matrix(0.07407407407407407,0,0,0.07407407407407407,109.55555555555553,0)" xlink:href="#bo"/><use transform="matrix(0.07407407407407407,0,0,0.07407407407407407,124.37037037037035,0)" xlink:href="#bd"/></g><path fill="#333" d="M240 0l2-218c-23 76-54 145-80 218h-23L58-218 59 0H30v-248h44l77 211c21-75 51-140 76-211h43V0h-30" id="bK"/><g id="X"><use transform="matrix(0.07407407407407407,0,0,0.07407407407407407,0,0)" xlink:href="#bK"/><use transform="matrix(0.07407407407407407,0,0,0.07407407407407407,22.148148148148145,0)" xlink:href="#bp"/><use transform="matrix(0.07407407407407407,0,0,0.07407407407407407,28,0)" xlink:href="#aV"/><use transform="matrix(0.07407407407407407,0,0,0.07407407407407407,41.33333333333333,0)" xlink:href="#aV"/><use transform="matrix(0.07407407407407407,0,0,0.07407407407407407,54.66666666666666,0)" xlink:href="#bp"/><use transform="matrix(0.07407407407407407,0,0,0.07407407407407407,60.518518518518505,0)" xlink:href="#aT"/><use transform="matrix(0.07407407407407407,0,0,0.07407407407407407,75.33333333333331,0)" xlink:href="#bo"/></g><g id="Y"><use transform="matrix(0.07407407407407407,0,0,0.07407407407407407,0,0)" xlink:href="#bK"/><use transform="matrix(0.07407407407407407,0,0,0.07407407407407407,22.148148148148145,0)" xlink:href="#bp"/><use transform="matrix(0.07407407407407407,0,0,0.07407407407407407,28,0)" xlink:href="#aV"/><use transform="matrix(0.07407407407407407,0,0,0.07407407407407407,41.33333333333333,0)" xlink:href="#aV"/><use transform="matrix(0.07407407407407407,0,0,0.07407407407407407,54.66666666666666,0)" xlink:href="#bp"/><use transform="matrix(0.07407407407407407,0,0,0.07407407407407407,60.518518518518505,0)" xlink:href="#aT"/><use transform="matrix(0.07407407407407407,0,0,0.07407407407407407,75.33333333333331,0)" xlink:href="#bo"/></g><g id="Z"><use transform="matrix(0.07407407407407407,0,0,0.07407407407407407,0,0)" xlink:href="#aU"/><use transform="matrix(0.07407407407407407,0,0,0.07407407407407407,14.814814814814813,0)" xlink:href="#be"/><use transform="matrix(0.07407407407407407,0,0,0.07407407407407407,23.629629629629623,0)" xlink:href="#bp"/><use transform="matrix(0.07407407407407407,0,0,0.07407407407407407,29.481481481481477,0)" xlink:href="#bu"/><use transform="matrix(0.07407407407407407,0,0,0.07407407407407407,42.81481481481481,0)" xlink:href="#bb"/><use transform="matrix(0.07407407407407407,0,0,0.07407407407407407,57.62962962962962,0)" xlink:href="#be"/></g><g id="aa"><use transform="matrix(0.07407407407407407,0,0,0.07407407407407407,0,0)" xlink:href="#aY"/><use transform="matrix(0.07407407407407407,0,0,0.07407407407407407,16.22222222222222,0)" xlink:href="#aP"/><use transform="matrix(0.07407407407407407,0,0,0.07407407407407407,34,0)" xlink:href="#bk"/><use transform="matrix(0.07407407407407407,0,0,0.07407407407407407,54.74074074074074,0)" xlink:href="#bi"/></g><path fill="#333" d="M206 0h-36l-40-164L89 0H53L-1-190h32L70-26l43-164h34l41 164 42-164h31" id="bL"/><g id="ab"><use transform="matrix(0.07407407407407407,0,0,0.07407407407407407,0,0)" xlink:href="#br"/><use transform="matrix(0.07407407407407407,0,0,0.07407407407407407,19.185185185185183,0)" xlink:href="#aQ"/><use transform="matrix(0.07407407407407407,0,0,0.07407407407407407,34,0)" xlink:href="#be"/><use transform="matrix(0.07407407407407407,0,0,0.07407407407407407,42.814814814814824,0)" xlink:href="#aU"/><use transform="matrix(0.07407407407407407,0,0,0.07407407407407407,57.62962962962963,0)" xlink:href="#bL"/><use transform="matrix(0.07407407407407407,0,0,0.07407407407407407,76.81481481481481,0)" xlink:href="#aQ"/><use transform="matrix(0.07407407407407407,0,0,0.07407407407407407,91.62962962962962,0)" xlink:href="#be"/><use transform="matrix(0.07407407407407407,0,0,0.07407407407407407,100.44444444444443,0)" xlink:href="#bb"/></g><g id="ac"><use transform="matrix(0.09259259259259256,0,0,0.09259259259259256,0,0)" xlink:href="#bf"/><use transform="matrix(0.09259259259259256,0,0,0.09259259259259256,22.222222222222214,0)" xlink:href="#aP"/><use transform="matrix(0.09259259259259256,0,0,0.09259259259259256,44.44444444444443,0)" xlink:href="#bg"/><use transform="matrix(0.09259259259259256,0,0,0.09259259259259256,53.70370370370368,0)" xlink:href="#bC"/></g><g id="ad"><use transform="matrix(0.09259259259259256,0,0,0.09259259259259256,0,0)" xlink:href="#bw"/><use transform="matrix(0.09259259259259256,0,0,0.09259259259259256,23.981481481481474,0)" xlink:href="#be"/><use transform="matrix(0.09259259259259256,0,0,0.09259259259259256,34.999999999999986,0)" xlink:href="#bp"/><use transform="matrix(0.09259259259259256,0,0,0.09259259259259256,42.314814814814795,0)" xlink:href="#bu"/><use transform="matrix(0.09259259259259256,0,0,0.09259259259259256,58.98148148148145,0)" xlink:href="#bb"/><use transform="matrix(0.09259259259259256,0,0,0.09259259259259256,77.49999999999997,0)" xlink:href="#be"/></g><g id="ae"><use transform="matrix(0.09259259259259256,0,0,0.09259259259259256,0,0)" xlink:href="#bf"/><use transform="matrix(0.09259259259259256,0,0,0.09259259259259256,22.222222222222214,0)" xlink:href="#aP"/><use transform="matrix(0.09259259259259256,0,0,0.09259259259259256,44.44444444444443,0)" xlink:href="#bg"/><use transform="matrix(0.09259259259259256,0,0,0.09259259259259256,53.70370370370368,0)" xlink:href="#bD"/></g><g id="af"><use transform="matrix(0.09259259259259256,0,0,0.09259259259259256,0,0)" xlink:href="#bB"/><use transform="matrix(0.09259259259259256,0,0,0.09259259259259256,22.222222222222214,0)" xlink:href="#be"/><use transform="matrix(0.09259259259259256,0,0,0.09259259259259256,33.24074074074073,0)" xlink:href="#bp"/><use transform="matrix(0.09259259259259256,0,0,0.09259259259259256,40.55555555555554,0)" xlink:href="#aU"/><use transform="matrix(0.09259259259259256,0,0,0.09259259259259256,59.074074074074055,0)" xlink:href="#bF"/><use transform="matrix(0.09259259259259256,0,0,0.09259259259259256,77.59259259259257,0)" xlink:href="#bb"/></g><g id="ag"><use transform="matrix(0.09259259259259256,0,0,0.09259259259259256,0,0)" xlink:href="#aY"/><use transform="matrix(0.09259259259259256,0,0,0.09259259259259256,20.27777777777777,0)" xlink:href="#bJ"/></g><g id="ah"><use transform="matrix(0.09259259259259256,0,0,0.09259259259259256,0,0)" xlink:href="#bk"/><use transform="matrix(0.09259259259259256,0,0,0.09259259259259256,25.925925925925917,0)" xlink:href="#bw"/><use transform="matrix(0.09259259259259256,0,0,0.09259259259259256,49.90740740740739,0)" xlink:href="#bf"/></g><g id="ai"><use transform="matrix(0.09259259259259256,0,0,0.09259259259259256,0,0)" xlink:href="#bk"/><use transform="matrix(0.09259259259259256,0,0,0.09259259259259256,25.925925925925917,0)" xlink:href="#be"/><use transform="matrix(0.09259259259259256,0,0,0.09259259259259256,36.94444444444443,0)" xlink:href="#aT"/><use transform="matrix(0.09259259259259256,0,0,0.09259259259259256,55.46296296296294,0)" xlink:href="#bI"/><use transform="matrix(0.09259259259259256,0,0,0.09259259259259256,73.98148148148145,0)" xlink:href="#bo"/><use transform="matrix(0.09259259259259256,0,0,0.09259259259259256,92.49999999999997,0)" xlink:href="#aU"/></g><g id="aj"><use transform="matrix(0.09259259259259256,0,0,0.09259259259259256,0,0)" xlink:href="#aV"/><use transform="matrix(0.09259259259259256,0,0,0.09259259259259256,16.66666666666666,0)" xlink:href="#aT"/><use transform="matrix(0.09259259259259256,0,0,0.09259259259259256,35.185185185185176,0)" xlink:href="#bA"/><use transform="matrix(0.09259259259259256,0,0,0.09259259259259256,44.44444444444443,0)" xlink:href="#bd"/><use transform="matrix(0.09259259259259256,0,0,0.09259259259259256,53.70370370370368,0)" xlink:href="#bL"/><use transform="matrix(0.09259259259259256,0,0,0.09259259259259256,77.68518518518516,0)" xlink:href="#aQ"/><use transform="matrix(0.09259259259259256,0,0,0.09259259259259256,96.20370370370367,0)" xlink:href="#be"/><use transform="matrix(0.09259259259259256,0,0,0.09259259259259256,107.22222222222219,0)" xlink:href="#bb"/></g><g id="ak"><use transform="matrix(0.09259259259259256,0,0,0.09259259259259256,0,0)" xlink:href="#aV"/><use transform="matrix(0.09259259259259256,0,0,0.09259259259259256,16.66666666666666,0)" xlink:href="#bp"/><use transform="matrix(0.09259259259259256,0,0,0.09259259259259256,23.981481481481474,0)" xlink:href="#aZ"/><use transform="matrix(0.09259259259259256,0,0,0.09259259259259256,51.66666666666665,0)" xlink:href="#bI"/><use transform="matrix(0.09259259259259256,0,0,0.09259259259259256,70.18518518518516,0)" xlink:href="#aS"/><use transform="matrix(0.09259259259259256,0,0,0.09259259259259256,77.49999999999997,0)" xlink:href="#aQ"/><use transform="matrix(0.09259259259259256,0,0,0.09259259259259256,96.01851851851849,0)" xlink:href="#bd"/><use transform="matrix(0.09259259259259256,0,0,0.09259259259259256,105.27777777777771,0)" xlink:href="#aT"/><use transform="matrix(0.09259259259259256,0,0,0.09259259259259256,123.79629629629625,0)" xlink:href="#be"/></g><g id="al"><use transform="matrix(0.09259259259259256,0,0,0.09259259259259256,0,0)" xlink:href="#bx"/><use transform="matrix(0.09259259259259256,0,0,0.09259259259259256,22.222222222222214,0)" xlink:href="#aS"/><use transform="matrix(0.09259259259259256,0,0,0.09259259259259256,29.537037037037027,0)" xlink:href="#bu"/><use transform="matrix(0.09259259259259256,0,0,0.09259259259259256,46.20370370370369,0)" xlink:href="#bb"/><use transform="matrix(0.09259259259259256,0,0,0.09259259259259256,64.7222222222222,0)" xlink:href="#bd"/><use transform="matrix(0.09259259259259256,0,0,0.09259259259259256,73.98148148148145,0)" xlink:href="#bp"/></g><path fill="#333" d="M140-251c80 0 125 45 125 126S219 4 139 4C58 4 15-44 15-125s44-126 125-126zm-1 214c52 0 73-35 73-88 0-50-21-86-72-86-52 0-73 35-73 86s22 88 72 88" id="bM"/><path fill="#333" d="M240-174c0 40-23 61-54 70L253 0h-59l-57-94H76V0H24v-248c93 4 217-23 216 74zM76-134c48-2 112 12 112-38 0-48-66-32-112-35v73" id="bN"/><g id="am"><use transform="matrix(0.06790123456790123,0,0,0.06790123456790123,0,0)" xlink:href="#bM"/><use transform="matrix(0.06790123456790123,0,0,0.06790123456790123,19.012345679012345,0)" xlink:href="#bN"/></g><path fill="#3aa6dd" d="M212-179c-10-28-35-45-73-45-59 0-87 40-87 99 0 60 29 101 89 101 43 0 62-24 78-52l27 14C228-24 195 4 139 4 59 4 22-46 18-125c-6-104 99-153 187-111 19 9 31 26 39 46" id="bO"/><path fill="#3aa6dd" d="M100-194c62-1 85 37 85 99 1 63-27 99-86 99S16-35 15-95c0-66 28-99 85-99zM99-20c44 1 53-31 53-75 0-43-8-75-51-75s-53 32-53 75 10 74 51 75" id="bP"/><path fill="#3aa6dd" d="M210-169c-67 3-38 105-44 169h-31v-121c0-29-5-50-35-48C34-165 62-65 56 0H25l-1-190h30c1 10-1 24 2 32 10-44 99-50 107 0 11-21 27-35 58-36 85-2 47 119 55 194h-31v-121c0-29-5-49-35-48" id="bQ"/><path fill="#3aa6dd" d="M141-36C126-15 110 5 73 4 37 3 15-17 15-53c-1-64 63-63 125-63 3-35-9-54-41-54-24 1-41 7-42 31l-33-3c5-37 33-52 76-52 45 0 72 20 72 64v82c-1 20 7 32 28 27v20c-31 9-61-2-59-35zM48-53c0 20 12 33 32 33 41-3 63-29 60-74-43 2-92-5-92 41" id="bR"/><path fill="#3aa6dd" d="M117-194c89-4 53 116 60 194h-32v-121c0-31-8-49-39-48C34-167 62-67 57 0H25l-1-190h30c1 10-1 24 2 32 11-22 29-35 61-36" id="bS"/><path fill="#3aa6dd" d="M85-194c31 0 48 13 60 33l-1-100h32l1 261h-30c-2-10 0-23-3-31C134-8 116 4 85 4 32 4 16-35 15-94c0-66 23-100 70-100zm9 24c-40 0-46 34-46 75 0 40 6 74 45 74 42 0 51-32 51-76 0-42-9-74-50-73" id="bT"/><path fill="#3aa6dd" d="M135-143c-3-34-86-38-87 0 15 53 115 12 119 90S17 21 10-45l28-5c4 36 97 45 98 0-10-56-113-15-118-90-4-57 82-63 122-42 12 7 21 19 24 35" id="bU"/><g id="an"><use transform="matrix(0.08024691358024691,0,0,0.08024691358024691,0,0)" xlink:href="#bO"/><use transform="matrix(0.08024691358024691,0,0,0.08024691358024691,20.78395061728395,0)" xlink:href="#bP"/><use transform="matrix(0.08024691358024691,0,0,0.08024691358024691,36.83333333333333,0)" xlink:href="#bQ"/><use transform="matrix(0.08024691358024691,0,0,0.08024691358024691,60.82716049382715,0)" xlink:href="#bQ"/><use transform="matrix(0.08024691358024691,0,0,0.08024691358024691,84.82098765432096,0)" xlink:href="#bR"/><use transform="matrix(0.08024691358024691,0,0,0.08024691358024691,100.87037037037035,0)" xlink:href="#bS"/><use transform="matrix(0.08024691358024691,0,0,0.08024691358024691,116.91975308641973,0)" xlink:href="#bT"/><use transform="matrix(0.08024691358024691,0,0,0.08024691358024691,132.9691358024691,0)" xlink:href="#bU"/></g><path fill="#7ab648" d="M30 0v-248h187v28H63v79h144v27H63v87h162V0H30" id="bV"/><path fill="#7ab648" d="M108 0H70L1-190h34L89-25l56-165h34" id="bW"/><path fill="#7ab648" d="M100-194c63 0 86 42 84 106H49c0 40 14 67 53 68 26 1 43-12 49-29l28 8c-11 28-37 45-77 45C44 4 14-33 15-96c1-61 26-98 85-98zm52 81c6-60-76-77-97-28-3 7-6 17-6 28h103" id="bX"/><path fill="#7ab648" d="M117-194c89-4 53 116 60 194h-32v-121c0-31-8-49-39-48C34-167 62-67 57 0H25l-1-190h30c1 10-1 24 2 32 11-22 29-35 61-36" id="bY"/><path fill="#7ab648" d="M59-47c-2 24 18 29 38 22v24C64 9 27 4 27-40v-127H5v-23h24l9-43h21v43h35v23H59v120" id="bZ"/><path fill="#7ab648" d="M135-143c-3-34-86-38-87 0 15 53 115 12 119 90S17 21 10-45l28-5c4 36 97 45 98 0-10-56-113-15-118-90-4-57 82-63 122-42 12 7 21 19 24 35" id="ca"/><g id="ao"><use transform="matrix(0.08024691358024691,0,0,0.08024691358024691,0,0)" xlink:href="#bV"/><use transform="matrix(0.08024691358024691,0,0,0.08024691358024691,19.25925925925926,0)" xlink:href="#bW"/><use transform="matrix(0.08024691358024691,0,0,0.08024691358024691,33.7037037037037,0)" xlink:href="#bX"/><use transform="matrix(0.08024691358024691,0,0,0.08024691358024691,49.753086419753096,0)" xlink:href="#bY"/><use transform="matrix(0.08024691358024691,0,0,0.08024691358024691,65.80246913580247,0)" xlink:href="#bZ"/><use transform="matrix(0.08024691358024691,0,0,0.08024691358024691,73.82716049382717,0)" xlink:href="#ca"/></g><path fill="#de5f85" d="M127-220V0H93v-220H8v-28h204v28h-85" id="cb"/><path fill="#de5f85" d="M100-194c63 0 86 42 84 106H49c0 40 14 67 53 68 26 1 43-12 49-29l28 8c-11 28-37 45-77 45C44 4 14-33 15-96c1-61 26-98 85-98zm52 81c6-60-76-77-97-28-3 7-6 17-6 28h103" id="cc"/><path fill="#de5f85" d="M24 0v-261h32V0H24" id="cd"/><path fill="#de5f85" d="M210-169c-67 3-38 105-44 169h-31v-121c0-29-5-50-35-48C34-165 62-65 56 0H25l-1-190h30c1 10-1 24 2 32 10-44 99-50 107 0 11-21 27-35 58-36 85-2 47 119 55 194h-31v-121c0-29-5-49-35-48" id="ce"/><path fill="#de5f85" d="M59-47c-2 24 18 29 38 22v24C64 9 27 4 27-40v-127H5v-23h24l9-43h21v43h35v23H59v120" id="cf"/><path fill="#de5f85" d="M114-163C36-179 61-72 57 0H25l-1-190h30c1 12-1 29 2 39 6-27 23-49 58-41v29" id="cg"/><path fill="#de5f85" d="M179-190L93 31C79 59 56 82 12 73V49c39 6 53-20 64-50L1-190h34L92-34l54-156h33" id="ch"/><g id="ap"><use transform="matrix(0.08024691358024691,0,0,0.08024691358024691,0,0)" xlink:href="#cb"/><use transform="matrix(0.08024691358024691,0,0,0.08024691358024691,14.364197530864196,0)" xlink:href="#cc"/><use transform="matrix(0.08024691358024691,0,0,0.08024691358024691,30.41358024691358,0)" xlink:href="#cd"/><use transform="matrix(0.08024691358024691,0,0,0.08024691358024691,36.75308641975308,0)" xlink:href="#cc"/><use transform="matrix(0.08024691358024691,0,0,0.08024691358024691,52.80246913580247,0)" xlink:href="#ce"/><use transform="matrix(0.08024691358024691,0,0,0.08024691358024691,76.79629629629629,0)" xlink:href="#cc"/><use transform="matrix(0.08024691358024691,0,0,0.08024691358024691,92.84567901234567,0)" xlink:href="#cf"/><use transform="matrix(0.08024691358024691,0,0,0.08024691358024691,100.87037037037037,0)" xlink:href="#cg"/><use transform="matrix(0.08024691358024691,0,0,0.08024691358024691,110.41975308641975,0)" xlink:href="#ch"/></g><g id="aq"><use transform="matrix(0.09259259259259256,0,0,0.09259259259259256,0,0)" xlink:href="#bg"/><use transform="matrix(0.09259259259259256,0,0,0.09259259259259256,9.259259259259256,0)" xlink:href="#bD"/><use transform="matrix(0.09259259259259256,0,0,0.09259259259259256,27.777777777777768,0)" xlink:href="#bh"/></g><g id="ar"><use transform="matrix(0.09259259259259256,0,0,0.09259259259259256,0,0)" xlink:href="#bx"/><use transform="matrix(0.09259259259259256,0,0,0.09259259259259256,22.222222222222214,0)" xlink:href="#bu"/><use transform="matrix(0.09259259259259256,0,0,0.09259259259259256,38.88888888888887,0)" xlink:href="#bb"/><use transform="matrix(0.09259259259259256,0,0,0.09259259259259256,57.40740740740739,0)" xlink:href="#bo"/><use transform="matrix(0.09259259259259256,0,0,0.09259259259259256,75.9259259259259,0)" xlink:href="#bd"/><use transform="matrix(0.09259259259259256,0,0,0.09259259259259256,85.18518518518515,0)" xlink:href="#bi"/><use transform="matrix(0.09259259259259256,0,0,0.09259259259259256,107.40740740740736,0)" xlink:href="#bc"/><use transform="matrix(0.09259259259259256,0,0,0.09259259259259256,124.074074074074,0)" xlink:href="#bd"/><use transform="matrix(0.09259259259259256,0,0,0.09259259259259256,133.3333333333333,0)" xlink:href="#bp"/><use transform="matrix(0.09259259259259256,0,0,0.09259259259259256,140.6481481481481,0)" xlink:href="#aT"/><use transform="matrix(0.09259259259259256,0,0,0.09259259259259256,159.1666666666666,0)" xlink:href="#bo"/></g></defs></g></svg>